<?xml version="1.0" standalone="no"?>
<!DOCTYPE svg PUBLIC "-//W3C//DTD SVG 20010904//EN"
 "http://www.w3.org/TR/2001/REC-SVG-20010904/DTD/svg10.dtd">
<svg version="1.0" xmlns="http://www.w3.org/2000/svg"
 width="409.000000pt" height="554.000000pt" viewBox="0 0 409.000000 554.000000"
 preserveAspectRatio="xMidYMid meet">

<g transform="translate(0.000000,554.000000) scale(0.100000,-0.100000)"
fill="#000000" stroke="none">
<path d="M1335 5500 c-32 -7 -67 -25 -99 -50 -12 -9 -16 -10 -12 -2 5 8 -1 12
-18 12 -14 0 -26 -4 -26 -10 0 -5 -9 -10 -19 -10 -11 0 -23 -4 -26 -10 -3 -5
-16 -15 -28 -21 -20 -10 -20 -9 2 9 21 17 21 20 6 25 -9 4 -24 3 -33 -2 -9 -4
-24 -6 -32 -4 -12 4 -12 3 -1 -5 14 -10 -2 -28 -17 -18 -4 2 -34 -2 -67 -10
-33 -8 -65 -16 -72 -18 -7 -1 -16 -5 -19 -9 -4 -4 -27 -7 -50 -7 -24 0 -46 -5
-49 -10 -4 -6 -11 -8 -16 -4 -13 8 -140 -56 -134 -66 3 -5 0 -12 -6 -16 -8 -4
-9 -3 -5 4 4 8 0 12 -12 12 -17 0 -49 -20 -89 -55 -6 -5 -24 -20 -40 -32 -49
-38 -108 -93 -99 -93 4 0 -2 -9 -15 -19 -14 -11 -27 -15 -30 -10 -9 15 -59
-64 -59 -94 0 -32 26 -77 44 -77 16 0 13 -43 -2 -48 -7 -2 -12 -11 -12 -19 0
-13 3 -13 15 -3 23 19 19 -6 -5 -37 -22 -28 -28 -55 -8 -35 7 7 17 12 23 12 5
0 2 -5 -7 -11 -10 -5 -22 -18 -28 -28 -8 -16 -7 -18 11 -14 21 6 21 6 3 -23
-19 -27 -19 -28 0 -21 16 6 17 5 6 -8 -7 -8 -9 -15 -5 -15 5 0 1 -8 -7 -17
-21 -24 -30 -123 -12 -123 7 0 11 6 9 13 -2 6 8 21 23 31 15 11 21 13 15 6 -7
-8 -13 -25 -13 -38 0 -22 -32 -79 -53 -93 -5 -4 -7 -13 -5 -20 9 -28 68 81 98
182 50 169 95 244 135 228 28 -11 43 -10 25 1 -12 8 -9 10 13 10 15 0 27 4 27
10 0 22 45 -10 58 -41 l13 -34 -21 25 c-20 24 -20 23 2 -23 14 -30 27 -46 36
-42 7 2 25 -8 39 -23 14 -15 32 -26 40 -24 8 2 20 0 27 -5 6 -4 3 0 -8 10 -12
11 -21 34 -23 60 -2 23 0 37 4 31 7 -9 38 -26 53 -28 3 -1 28 -22 55 -49 46
-43 73 -55 68 -29 -3 10 50 -6 90 -28 11 -7 17 -7 17 0 0 5 -10 15 -22 21 -13
6 -33 20 -45 31 -17 16 -19 23 -10 33 13 13 31 10 22 -5 -3 -4 2 -13 10 -20
10 -9 15 -9 15 -1 0 6 -4 11 -10 11 -5 0 -7 7 -4 15 5 12 10 10 25 -9 17 -22
66 -45 53 -25 -3 5 -11 9 -17 9 -16 0 -49 58 -37 65 5 3 11 -3 15 -14 6 -19
35 -37 35 -22 0 5 -7 12 -16 15 -8 3 -13 10 -10 15 4 5 2 21 -4 35 l-9 25 32
-19 c18 -11 40 -20 49 -20 9 0 21 -6 25 -13 13 -21 73 -60 73 -47 0 7 -9 14
-20 17 -29 8 -24 23 10 30 33 6 37 15 15 33 -8 7 -15 17 -15 22 0 6 7 5 15 -2
12 -10 15 -10 15 1 0 9 3 10 8 4 10 -14 42 -39 42 -33 0 10 -36 45 -62 62 -16
10 -28 23 -28 28 0 5 18 -5 41 -24 22 -18 50 -40 62 -48 l22 -14 -20 23 -20
23 38 -21 c47 -26 56 -27 26 -1 -13 10 -19 19 -14 20 6 0 17 -6 24 -12 11 -11
12 -10 6 1 -6 11 -4 13 9 8 9 -4 30 0 45 8 28 14 65 11 89 -8 8 -6 12 -6 12 1
0 6 7 9 15 6 8 -4 15 -2 15 3 0 5 -27 22 -60 37 -33 16 -59 31 -56 33 2 2 22
-5 44 -16 35 -18 41 -18 60 -5 19 13 25 13 53 -2 l32 -16 -24 30 c-13 16 -27
28 -30 26 -17 -9 -86 -12 -99 -4 -12 8 -11 10 5 10 11 1 39 3 62 5 39 3 45 0
79 -38 21 -23 35 -33 31 -23 -7 17 -5 17 9 5 15 -12 16 -11 10 11 -6 21 -5 22
4 7 6 -9 15 -15 20 -12 5 3 12 0 16 -6 5 -8 2 -10 -7 -5 -8 4 -3 -2 11 -13 14
-11 31 -21 38 -21 6 0 12 -4 12 -10 0 -5 10 -14 23 -21 14 -7 9 2 -16 26 -20
20 -34 41 -31 46 4 6 12 5 22 -4 10 -8 28 -18 41 -22 18 -6 22 -4 16 6 -6 11
-5 11 5 2 7 -7 13 -25 14 -40 1 -21 6 -28 21 -28 20 0 45 -16 40 -25 -1 -3 1
-14 6 -25 7 -18 8 -17 6 5 -1 14 -10 36 -19 49 -10 14 -16 27 -13 29 9 10 34
-21 40 -49 5 -21 11 -29 21 -25 9 4 12 2 8 -5 -10 -16 -11 -100 -1 -90 4 4 9
23 9 40 1 33 18 23 18 -10 0 -9 11 -21 25 -27 17 -8 25 -20 25 -37 0 -14 4
-25 8 -25 4 0 8 16 8 37 0 20 -2 31 -4 24 -5 -14 -22 -4 -22 13 0 9 9 12 25 8
27 -5 31 -12 15 -28 -6 -6 -8 -18 -4 -28 5 -12 10 -14 20 -5 20 16 35 1 29
-29 -3 -15 -3 -22 1 -15 3 7 13 9 22 6 13 -4 14 -3 3 5 -7 5 -11 14 -7 20 4 6
-3 20 -15 30 -12 12 -19 28 -16 39 4 16 5 16 6 -2 1 -11 13 -28 26 -38 20 -14
24 -15 19 -2 -9 22 7 18 39 -10 16 -14 25 -30 22 -35 -3 -6 -2 -10 2 -10 12 0
36 -68 28 -80 -3 -6 1 -13 9 -16 9 -3 16 -15 16 -25 0 -22 37 -62 49 -54 5 3
7 -5 4 -17 -4 -14 -2 -19 3 -15 5 5 17 -14 27 -45 15 -46 17 -48 13 -15 -3 21
0 37 5 37 6 0 7 5 3 11 -4 8 -9 7 -16 -2 -8 -11 -9 -10 -5 2 3 9 0 22 -6 28
-6 6 -8 14 -4 17 4 4 8 5 10 3 24 -35 101 -118 106 -114 5 2 14 -15 21 -38 8
-23 17 -47 22 -53 5 -7 8 -16 6 -20 -4 -15 13 -54 23 -54 6 0 5 8 -1 21 -13
24 -4 41 10 19 6 -8 10 -11 10 -6 0 6 -12 23 -27 39 -20 21 -23 28 -10 24 25
-9 21 2 -9 25 -14 11 -23 23 -20 26 3 3 16 -3 28 -14 l23 -19 -22 26 c-31 34
-29 48 2 19 14 -13 25 -20 25 -16 0 5 7 3 15 -4 8 -7 15 -8 15 -3 0 14 -63 58
-80 56 -11 -2 -11 -1 -2 3 10 5 9 10 -4 25 -27 30 -11 22 32 -16 38 -34 67
-48 45 -22 -6 8 -7 18 -3 22 4 5 2 5 -4 2 -6 -4 -22 6 -35 21 -13 14 -17 22
-9 16 24 -17 49 -24 55 -14 3 5 0 12 -6 16 -8 5 -9 3 -4 -6 5 -9 4 -11 -4 -6
-16 10 -2 29 16 22 12 -5 14 4 9 60 -3 37 -7 69 -10 71 -3 3 0 17 5 31 7 18 5
38 -8 76 -9 28 -18 60 -18 71 -1 11 -6 29 -11 40 -6 11 -10 29 -10 40 1 20
-29 74 -48 87 -5 3 -10 18 -12 32 -1 14 -12 39 -23 55 -12 16 -21 34 -21 40 0
7 -7 14 -15 17 -8 4 -15 12 -15 20 0 8 -4 14 -8 14 -5 0 -23 23 -42 51 -21 32
-35 47 -40 39 -4 -7 -13 4 -24 29 -15 38 -25 45 -62 44 -6 0 -9 7 -7 16 3 11
-5 21 -21 29 -14 6 -26 15 -26 20 0 5 -24 19 -52 32 -29 13 -59 29 -66 34 -8
5 -37 18 -65 28 -28 10 -54 23 -58 29 -3 6 -20 12 -37 14 -17 1 -55 14 -85 29
-30 14 -76 29 -103 32 -26 3 -53 8 -59 12 -14 9 -204 11 -240 2z m20 -20 c-3
-5 -14 -10 -23 -9 -14 0 -13 2 3 9 27 11 27 11 20 0z m31 -47 c-3 -4 -17 -8
-29 -10 -17 -2 -19 -1 -7 7 17 11 47 14 36 3z m111 -6 c3 -4 -8 -7 -25 -7 -17
0 -33 4 -36 8 -6 10 51 8 61 -1z m-337 -12 c-7 -8 -17 -15 -23 -15 -6 0 -2 7
9 15 25 19 30 19 14 0z m410 -5 c10 0 26 -7 34 -15 9 -9 28 -23 43 -31 26 -15
26 -15 3 -9 -14 5 -39 8 -57 9 -17 1 -29 4 -26 9 2 4 -1 7 -8 7 -7 0 -9 3 -5
7 3 4 -4 13 -16 21 -15 9 -17 11 -5 8 10 -3 27 -6 37 -6z m-375 -10 c-3 -5
-13 -10 -21 -10 -8 0 -12 5 -9 10 3 6 13 10 21 10 8 0 12 -4 9 -10z m125 -4
c0 -2 -7 -7 -16 -10 -8 -3 -12 -2 -9 4 6 10 25 14 25 6z m-327 -17 c8 6 16 5
23 -3 8 -9 0 -12 -33 -12 -38 -1 -41 0 -26 12 11 7 19 9 21 3 3 -6 8 -6 15 0z
m498 -2 c-6 -8 -9 -16 -6 -18 2 -3 -5 -5 -15 -6 -11 -1 -20 2 -20 8 0 5 -12
10 -27 11 -19 1 -13 3 17 8 25 4 49 8 54 8 5 1 3 -4 -3 -11z m46 7 c-3 -3 -12
-4 -19 -1 -8 3 -5 6 6 6 11 1 17 -2 13 -5z m-427 -9 c0 -2 -9 -9 -20 -15 -12
-6 -20 -7 -20 -1 0 5 8 12 18 14 9 3 18 5 20 6 1 0 2 -1 2 -4z m90 -5 c0 -5
-10 -10 -22 -10 -19 0 -20 2 -8 10 19 13 30 13 30 0z m177 4 c-3 -3 -12 -4
-19 -1 -8 3 -5 6 6 6 11 1 17 -2 13 -5z m-57 -15 c-13 -6 -28 -15 -32 -22 -5
-9 -10 -9 -19 0 -17 17 -5 28 38 30 34 1 35 0 13 -8z m-384 -12 c3 -3 -5 -5
-18 -5 -13 -1 -37 -3 -55 -5 -18 -2 -30 0 -27 5 4 5 12 7 20 4 7 -3 16 -1 19
4 5 8 52 7 61 -3z m474 -10 c0 -5 -17 -6 -39 -2 -30 5 -40 3 -45 -10 -3 -9
-10 -13 -16 -10 -6 4 -5 11 3 20 13 16 97 17 97 2z m105 -7 c3 -5 1 -10 -4
-10 -6 0 -11 5 -11 10 0 6 2 10 4 10 3 0 8 -4 11 -10z m275 -25 c31 -18 16
-18 -30 0 -23 9 -28 14 -15 14 11 0 31 -6 45 -14z m-495 -15 c3 -5 1 -10 -4
-10 -6 0 -11 5 -11 10 0 6 2 10 4 10 3 0 8 -4 11 -10z m560 -30 c10 -11 16
-22 13 -25 -3 -3 -11 1 -18 10 -7 8 -22 15 -34 15 -17 0 -18 2 -6 10 21 13 24
13 45 -10z m-1025 6 c0 -2 -7 -6 -15 -10 -8 -3 -15 -1 -15 4 0 6 7 10 15 10 8
0 15 -2 15 -4z m-102 -21 c-2 -3 -19 -8 -38 -11 -25 -5 -31 -4 -26 5 5 7 14
10 20 8 7 -3 19 -1 27 3 13 9 27 5 17 -5z m52 5 c0 -5 -7 -10 -16 -10 -8 0
-12 5 -9 10 3 6 10 10 16 10 5 0 9 -4 9 -10z m805 -20 c3 -6 -1 -7 -9 -4 -18
7 -21 14 -7 14 6 0 13 -4 16 -10z m180 -10 c3 -5 2 -10 -4 -10 -5 0 -13 5 -16
10 -3 6 -2 10 4 10 5 0 13 -4 16 -10z m-90 -18 c-3 -3 -11 0 -18 7 -9 10 -8
11 6 5 10 -3 15 -9 12 -12z m245 -2 c0 -5 -9 -6 -20 -3 -11 3 -20 9 -20 13 0
5 9 6 20 3 11 -3 20 -9 20 -13z m-544 -26 c32 -14 48 -22 34 -19 -14 4 -43 11
-64 16 -22 5 -46 14 -55 19 -36 21 27 9 85 -16z m-846 6 c0 -5 -7 -10 -16 -10
-8 0 -12 5 -9 10 3 6 10 10 16 10 5 0 9 -4 9 -10z m970 -20 c25 -16 50 -30 57
-30 6 0 15 -4 18 -10 9 -15 -36 4 -92 39 -26 17 -43 31 -38 31 6 0 30 -14 55
-30z m50 22 c0 -4 -10 -9 -22 -9 -18 -2 -20 0 -8 7 18 12 30 13 30 2z m255 -2
c3 -6 -1 -7 -9 -4 -18 7 -21 14 -7 14 6 0 13 -4 16 -10z m-955 -4 c0 -3 -4 -8
-10 -11 -5 -3 -10 -1 -10 4 0 6 5 11 10 11 6 0 10 -2 10 -4z m420 -6 c13 -8
13 -10 -2 -10 -9 0 -20 5 -23 10 -8 13 5 13 25 0z m320 -20 c6 -11 9 -20 7
-20 -2 0 -12 9 -22 20 -10 11 -13 20 -7 20 6 0 16 -9 22 -20z m-135 -50 c4 -6
-19 2 -49 17 -31 15 -56 31 -56 35 0 10 96 -38 105 -52z m196 23 c13 -16 12
-17 -3 -4 -10 7 -18 15 -18 17 0 8 8 3 21 -13z m-344 -19 c18 -14 33 -30 33
-37 0 -8 -3 -8 -8 -2 -4 6 -22 23 -40 38 -42 34 -30 36 15 1z m47 11 c11 -8
15 -15 10 -15 -6 0 -19 7 -30 15 -10 8 -14 14 -9 14 6 0 19 -6 29 -14z m171
-33 c-3 -3 -16 5 -28 17 l-22 23 28 -17 c15 -10 25 -20 22 -23z m90 8 c10 -11
16 -20 13 -20 -3 0 -13 9 -23 20 -10 11 -16 20 -13 20 3 0 13 -9 23 -20z
m-369 -17 c-7 -7 -26 7 -26 19 0 6 6 6 15 -2 9 -7 13 -15 11 -17z m209 2 l30
-24 -37 17 c-21 9 -37 20 -38 25 0 13 14 7 45 -18z m130 15 c3 -5 2 -10 -4
-10 -5 0 -13 5 -16 10 -3 6 -2 10 4 10 5 0 13 -4 16 -10z m135 0 c0 -5 -2 -10
-4 -10 -3 0 -8 5 -11 10 -3 6 -1 10 4 10 6 0 11 -4 11 -10z m525 -28 c-3 -3
-11 0 -18 7 -9 10 -8 11 6 5 10 -3 15 -9 12 -12z m-960 -12 c10 -11 16 -20 13
-20 -3 0 -13 9 -23 20 -10 11 -16 20 -13 20 3 0 13 -9 23 -20z m245 10 c0 -5
-4 -10 -9 -10 -6 0 -13 5 -16 10 -3 6 1 10 9 10 9 0 16 -4 16 -10z m174 -36
c3 -8 2 -12 -4 -9 -6 3 -10 10 -10 16 0 14 7 11 14 -7z m206 -9 c0 -7 5 -15
12 -17 8 -3 8 -9 -1 -24 -7 -10 -10 -12 -8 -4 3 9 -1 24 -9 35 -16 22 -18 39
-4 30 6 -3 10 -12 10 -20z m40 0 c14 -19 14 -19 -2 -6 -10 7 -18 18 -18 24 0
6 1 8 3 6 1 -2 9 -13 17 -24z m-775 5 c3 -5 2 -10 -4 -10 -5 0 -13 5 -16 10
-3 6 -2 10 4 10 5 0 13 -4 16 -10z m211 -1 c7 -11 -27 -11 -45 0 -9 6 -5 9 13
9 15 0 29 -4 32 -9z m-251 -19 c10 -11 16 -20 13 -20 -3 0 -13 9 -23 20 -10
11 -16 20 -13 20 3 0 13 -9 23 -20z m-835 0 c0 -5 -2 -10 -4 -10 -3 0 -8 5
-11 10 -3 6 -1 10 4 10 6 0 11 -4 11 -10z m1215 -10 c3 -6 -1 -7 -9 -4 -18 7
-21 14 -7 14 6 0 13 -4 16 -10z m35 -5 c11 -13 10 -14 -4 -9 -9 3 -16 10 -16
15 0 13 6 11 20 -6z m-63 -22 c-8 -7 -37 9 -31 19 3 5 12 4 20 -3 8 -6 13 -14
11 -16z m574 10 c13 -16 12 -17 -3 -4 -10 7 -18 15 -18 17 0 8 8 3 21 -13z
m-711 -13 c0 -5 -2 -10 -4 -10 -3 0 -8 5 -11 10 -3 6 -1 10 4 10 6 0 11 -4 11
-10z m555 -10 c3 -5 1 -10 -4 -10 -6 0 -11 5 -11 10 0 6 2 10 4 10 3 0 8 -4
11 -10z m70 -30 c11 -17 -5 -11 -28 11 l-22 21 22 -11 c12 -6 25 -16 28 -21z
m-669 -35 c10 -8 27 -15 37 -15 9 0 17 -4 17 -10 0 -5 -8 -6 -17 -3 -29 11
-79 43 -67 43 5 0 19 -7 30 -15z m598 -17 c-4 -6 -10 -5 -15 3 -14 22 -10 33
6 19 8 -7 12 -17 9 -22z m-780 -44 c50 -57 42 -57 -14 1 -24 25 -40 45 -35 44
6 0 27 -21 49 -45z m24 22 c-7 -8 -15 -12 -17 -11 -5 6 10 25 20 25 5 0 4 -6
-3 -14z m769 -47 c-4 -10 -8 -7 -12 9 -4 12 -11 22 -15 22 -4 0 -11 8 -14 18
-5 11 2 8 20 -9 14 -15 24 -33 21 -40z m28 41 c3 -5 1 -10 -4 -10 -6 0 -11 5
-11 10 0 6 2 10 4 10 3 0 8 -4 11 -10z m65 -15 c7 -8 9 -15 6 -15 -4 0 -14 7
-22 15 -9 8 -11 15 -6 15 5 0 15 -7 22 -15z m-920 -15 c0 -5 -4 -10 -10 -10
-5 0 -10 5 -10 10 0 6 5 10 10 10 6 0 10 -4 10 -10z m95 -10 c3 -5 2 -10 -4
-10 -5 0 -13 5 -16 10 -3 6 -2 10 4 10 5 0 13 -4 16 -10z m-519 -32 c14 -28
15 -31 2 -20 -14 11 -31 52 -22 52 2 0 11 -15 20 -32z m1364 23 c0 -5 3 -17 7
-27 4 -11 3 -15 -4 -11 -14 9 -24 47 -12 47 5 0 9 -4 9 -9z m-40 -11 c0 -5 -2
-10 -4 -10 -3 0 -8 5 -11 10 -3 6 -1 10 4 10 6 0 11 -4 11 -10z m451 -17 c13
-17 13 -17 -6 -3 -11 8 -22 16 -24 17 -2 2 0 3 6 3 6 0 17 -8 24 -17z m-1580
-20 c13 -16 12 -17 -3 -4 -10 7 -18 15 -18 17 0 8 8 3 21 -13z m1137 5 c7 -7
12 -17 12 -22 0 -6 -5 -3 -11 7 -8 14 -14 16 -25 6 -11 -9 -14 -8 -14 5 0 19
21 21 38 4z m-1294 -14 c3 -8 2 -12 -4 -9 -6 3 -10 10 -10 16 0 14 7 11 14 -7z
m1254 -29 c-3 -3 -9 2 -12 12 -6 14 -5 15 5 6 7 -7 10 -15 7 -18z m447 -3 c-3
-3 -11 0 -18 7 -9 10 -8 11 6 5 10 -3 15 -9 12 -12z m-143 -102 c5 0 3 -7 -6
-15 -8 -9 -13 -23 -10 -33 5 -14 4 -14 -4 -3 -9 12 -13 13 -26 1 -14 -11 -16
-10 -10 4 4 9 3 16 -2 15 -18 -3 -25 1 -19 11 4 7 13 6 26 -1 26 -14 36 -4 18
18 -12 15 -12 16 4 10 10 -4 23 -7 29 -7z m-1952 -21 c-7 -11 -14 -18 -17 -15
-3 3 0 12 7 21 18 21 23 19 10 -6z m1980 -19 c0 -5 -7 -7 -15 -4 -8 4 -12 10
-9 15 6 11 24 2 24 -11z m-40 -40 c0 -5 3 -17 6 -27 3 -10 -3 -4 -15 12 -11
17 -21 24 -21 18 0 -7 -5 -13 -11 -13 -8 0 -8 4 1 14 11 15 40 11 40 -4z m60
-1 c0 -6 -4 -7 -10 -4 -5 3 -10 11 -10 16 0 6 5 7 10 4 6 -3 10 -11 10 -16z
m83 -31 c6 -23 6 -23 -9 -3 -14 19 -14 17 -9 -23 3 -24 10 -53 16 -65 10 -19
10 -20 -3 -7 -18 19 -42 73 -28 65 12 -8 13 5 1 25 -11 17 -5 30 13 30 8 0 16
-10 19 -22z m-144 -38 c0 -11 -3 -10 -14 4 -8 11 -15 27 -15 35 0 11 4 10 15
-5 8 -10 14 -26 14 -34z m210 -14 c-3 -3 -11 5 -18 17 -13 21 -12 21 5 5 10
-10 16 -20 13 -22z m-169 14 c0 -5 -2 -10 -4 -10 -3 0 -8 5 -11 10 -3 6 -1 10
4 10 6 0 11 -4 11 -10z m109 -104 c-3 -3 -11 5 -18 17 -13 21 -12 21 5 5 10
-10 16 -20 13 -22z"/>
<path d="M1570 5390 c0 -6 7 -10 15 -10 8 0 15 2 15 4 0 2 -7 6 -15 10 -8 3
-15 1 -15 -4z"/>
<path d="M240 4950 c0 -5 5 -10 11 -10 5 0 7 5 4 10 -3 6 -8 10 -11 10 -2 0
-4 -4 -4 -10z"/>
<path d="M1500 4895 c-7 -8 -8 -15 -3 -15 5 0 20 -10 33 -22 18 -17 22 -18 17
-5 -4 10 -2 17 6 17 8 0 7 4 -3 9 -8 6 -18 7 -22 5 -4 -3 -5 2 -2 10 8 20 -10
21 -26 1z"/>
<path d="M280 4896 c0 -2 7 -7 16 -10 8 -3 12 -2 9 4 -6 10 -25 14 -25 6z"/>
<path d="M1580 4872 c0 -12 19 -26 26 -19 2 2 -2 10 -11 17 -9 8 -15 8 -15 2z"/>
<path d="M1841 4734 c15 -16 29 -36 32 -44 4 -11 5 -9 6 5 0 11 -14 31 -32 44
l-32 25 26 -30z"/>
<path d="M1180 4706 c0 -2 8 -10 18 -17 15 -13 16 -12 3 4 -13 16 -21 21 -21
13z"/>
<path d="M1844 4679 c-1 -15 3 -26 7 -23 11 6 12 41 2 47 -5 3 -8 -8 -9 -24z"/>
<path d="M730 4661 c0 -10 19 -25 25 -20 1 2 -3 10 -11 17 -8 7 -14 8 -14 3z"/>
<path d="M2107 4624 c-11 -11 3 -24 18 -18 8 4 12 10 9 15 -6 11 -18 12 -27 3z"/>
<path d="M2110 4575 c7 -9 15 -13 17 -11 7 7 -7 26 -19 26 -6 0 -6 -6 2 -15z"/>
<path d="M2213 4418 c3 -9 1 -18 -5 -20 -6 -2 -3 -10 6 -17 14 -12 16 -12 10
4 -5 13 -4 16 4 11 18 -11 14 10 -5 25 -15 12 -16 12 -10 -3z"/>
<path d="M2171 4376 c7 -15 15 -23 17 -16 3 7 -3 19 -13 28 -15 16 -16 15 -4
-12z"/>
<path d="M2345 4270 c-3 -5 -1 -10 4 -10 6 0 11 5 11 10 0 6 -2 10 -4 10 -3 0
-8 -4 -11 -10z"/>
<path d="M2487 4256 c-4 -10 -1 -13 9 -9 15 6 19 23 5 23 -5 0 -11 -7 -14 -14z"/>
<path d="M2232 4240 c0 -14 2 -19 5 -12 2 6 2 18 0 25 -3 6 -5 1 -5 -13z"/>
<path d="M2310 4252 c0 -12 19 -26 26 -19 2 2 -2 10 -11 17 -9 8 -15 8 -15 2z"/>
<path d="M2360 4244 c0 -6 7 -19 16 -30 14 -18 14 -18 3 6 -14 31 -19 36 -19
24z"/>
<path d="M2310 4218 c0 -3 9 -15 20 -28 11 -13 20 -19 20 -13 0 5 -9 18 -20
28 -11 10 -20 16 -20 13z"/>
<path d="M2140 4194 c-61 -6 -191 -25 -340 -51 -124 -21 -176 -24 -354 -24
-115 0 -222 3 -239 7 -22 5 -28 3 -22 -6 5 -8 4 -11 -2 -7 -5 3 -35 0 -66 -7
-31 -7 -59 -11 -61 -8 -3 3 -8 -3 -12 -12 -4 -11 -13 -15 -25 -11 -12 4 -21 1
-25 -9 -3 -9 -11 -13 -17 -9 -5 3 -7 2 -4 -4 5 -8 -62 -53 -108 -72 -5 -2 -16
-10 -23 -18 -7 -7 -23 -13 -35 -12 -19 1 -18 2 8 15 l30 14 -30 -2 c-49 -4
-169 23 -153 34 9 7 8 8 -6 4 -11 -4 -23 -1 -28 6 -6 10 -10 10 -17 -1 -7 -11
-13 -12 -23 -4 -16 13 -101 15 -93 2 4 -5 12 -6 18 -3 7 4 9 3 4 -1 -4 -5 -15
-10 -25 -11 -72 -11 -275 -68 -335 -94 l-48 -21 7 -47 c9 -64 21 -92 38 -92
19 0 47 -41 76 -112 14 -34 41 -75 67 -100 l44 -43 127 0 c98 0 139 4 181 19
51 18 54 21 87 90 33 71 64 172 64 211 0 30 19 45 57 45 30 0 35 -5 63 -61 17
-33 48 -79 69 -102 20 -23 50 -58 65 -77 l29 -35 86 3 c163 7 364 66 390 115
14 28 21 65 28 147 7 83 22 106 81 124 35 10 43 16 30 21 -10 4 -18 16 -18 27
0 15 3 18 13 10 12 -10 50 -9 87 3 28 9 26 -13 -2 -25 -35 -14 -6 -12 64 5 59
13 245 67 278 80 17 6 55 -48 45 -65 -7 -12 5 -63 14 -55 6 7 9 30 11 103 2
45 11 53 32 23 7 -10 22 -17 34 -17 29 3 108 62 94 71 -6 4 -17 -1 -24 -10
-11 -15 -14 -13 -31 19 -19 35 -55 50 -55 24 0 -8 -3 -9 -8 -3 -8 11 -37 14
-92 9z m-390 -83 c-20 -4 -41 -11 -48 -15 -7 -4 -12 -3 -12 3 0 12 24 19 65
19 28 0 28 -1 -5 -7z m-500 -27 c-162 -31 -218 -46 -278 -74 -34 -16 -62 -26
-62 -22 0 12 111 60 179 78 63 16 167 31 211 32 14 0 -9 -7 -50 -14z m403 9
c-7 -3 -13 -14 -14 -26 0 -21 -1 -21 -9 -2 -13 29 -12 31 13 32 12 0 16 -1 10
-4z m527 -24 c0 -6 -4 -7 -10 -4 -5 3 -10 11 -10 16 0 6 5 7 10 4 6 -3 10 -11
10 -16z m-595 1 c3 -5 1 -10 -4 -10 -6 0 -11 5 -11 10 0 6 2 10 4 10 3 0 8 -4
11 -10z m175 -11 c0 -5 -4 -9 -10 -9 -5 0 -10 7 -10 16 0 8 5 12 10 9 6 -3 10
-10 10 -16z m-290 -9 c11 -6 27 -25 36 -43 l16 -32 -25 30 c-23 28 -26 29 -63
18 -22 -7 -68 -14 -104 -17 -36 -3 -73 -8 -83 -11 -12 -5 -17 -2 -17 9 0 9 7
16 15 16 8 0 15 5 15 10 0 18 -16 11 -48 -20 -33 -32 -60 -38 -80 -18 -23 23
-121 15 -137 -13 -4 -5 5 -4 19 2 28 13 56 -1 56 -27 0 -8 11 -24 25 -36 14
-12 23 -27 21 -34 -10 -26 10 -23 42 8 26 25 32 27 23 11 -18 -35 -13 -43 22
-41 36 3 49 15 41 39 -3 12 5 20 27 28 28 10 33 8 64 -24 40 -43 68 -44 106
-4 24 26 31 29 49 19 33 -18 36 -4 4 23 l-28 24 31 -1 c29 -1 32 -4 42 -55 6
-30 11 -69 11 -88 0 -18 5 -33 10 -33 7 0 7 -4 0 -12 -6 -7 -20 -27 -30 -45
-21 -35 -101 -81 -137 -78 -12 1 -19 -3 -16 -8 4 -6 -4 -7 -21 -3 -20 5 -26 3
-21 -5 5 -8 -2 -9 -26 -4 -25 4 -30 3 -19 -4 13 -9 12 -11 -5 -11 -11 0 -31
-3 -45 -6 -18 -4 -21 -3 -11 4 10 7 -1 10 -37 10 -94 1 -143 40 -212 167 -46
86 -52 111 -35 152 18 42 74 69 189 89 190 34 291 38 336 14z m260 10 c0 -5
-4 -10 -10 -10 -5 0 -10 5 -10 10 0 6 5 10 10 10 6 0 10 -4 10 -10z m110 -20
c0 -5 -7 -10 -16 -10 -8 0 -12 5 -9 10 3 6 10 10 16 10 5 0 9 -4 9 -10z m-193
-42 c-3 -7 -5 -2 -5 12 0 14 2 19 5 13 2 -7 2 -19 0 -25z m-952 -23 l50 -15
-60 8 c-33 4 -98 7 -145 6 -51 0 -75 2 -60 7 43 12 163 9 215 -6z m718 8 c3
-5 -24 -9 -59 -10 -36 -2 -79 -10 -97 -19 -30 -16 -31 -16 -18 -1 7 10 28 21
45 26 39 11 123 14 129 4z m47 -13 c0 -5 -2 -10 -4 -10 -3 0 -8 5 -11 10 -3 6
-1 10 4 10 6 0 11 -4 11 -10z m-942 -27 c-10 -2 -26 -2 -35 0 -10 3 -2 5 17 5
19 0 27 -2 18 -5z m-103 -18 c-38 -12 -34 -19 10 -16 18 1 18 0 4 -11 -9 -7
-14 -20 -11 -28 5 -13 3 -13 -13 0 -17 14 -17 13 -10 -10 4 -14 11 -29 15 -35
14 -18 22 -75 11 -75 -6 0 -11 -4 -11 -10 0 -5 7 -10 15 -10 8 0 15 -9 15 -20
0 -27 14 -25 27 3 12 26 45 34 35 9 -4 -12 1 -14 21 -10 15 3 27 1 27 -4 0 -6
7 -8 15 -5 22 9 28 -10 8 -23 -15 -9 -12 -10 15 -6 20 4 31 2 27 -4 -3 -6 -1
-10 4 -10 6 0 11 7 11 15 0 8 6 15 13 15 17 1 73 48 65 55 -3 4 -15 2 -26 -4
-13 -7 -22 -7 -29 0 -8 8 -18 7 -33 -1 -26 -14 -76 -6 -108 16 -17 12 -21 21
-16 37 12 38 44 50 44 17 0 -48 66 -72 107 -38 9 7 14 8 11 3 -4 -6 -4 -16 0
-22 5 -7 19 -1 42 18 30 26 33 32 22 49 -16 26 -16 25 9 27 20 2 21 -1 15 -60
-25 -216 -64 -252 -277 -252 -99 0 -108 2 -148 28 -29 20 -41 33 -37 45 3 9
-1 28 -9 42 -17 29 -20 19 -4 -12 6 -11 8 -22 5 -25 -12 -13 -34 67 -41 148
-7 81 -6 87 17 113 26 31 116 66 168 65 l35 -1 -40 -13z m134 -36 c-8 -5 -21
-9 -30 -9 -9 0 -33 -11 -54 -25 -36 -25 -54 -27 -40 -6 3 6 11 9 16 6 5 -4 9
1 9 10 0 10 7 15 18 13 11 -2 16 3 14 14 -3 20 33 29 62 15 15 -7 16 -11 5
-18z m872 8 c-10 -9 -11 -8 -5 6 3 10 9 15 12 12 3 -3 0 -11 -7 -18z m-41 3
c13 -8 13 -10 -2 -10 -9 0 -20 5 -23 10 -8 13 5 13 25 0z m-1220 -30 c0 -5 -2
-10 -4 -10 -3 0 -8 5 -11 10 -3 6 -1 10 4 10 6 0 11 -4 11 -10z m370 -15 c-14
-8 -29 -14 -35 -14 -5 0 1 6 15 14 14 8 30 14 35 14 6 0 -1 -6 -15 -14z m-62
-40 c-6 -14 -13 -23 -15 -21 -5 5 15 46 22 46 3 0 -1 -11 -7 -25z m117 15 c3
-5 1 -10 -4 -10 -6 0 -11 5 -11 10 0 6 2 10 4 10 3 0 8 -4 11 -10z m-415 -20
c0 -5 -2 -10 -4 -10 -3 0 -8 5 -11 10 -3 6 -1 10 4 10 6 0 11 -4 11 -10z m230
-290 l35 -8 -40 -1 c-24 0 -53 7 -72 19 -44 26 -42 33 5 13 20 -9 53 -19 72
-23z"/>
<path d="M1170 4015 c-8 -9 -8 -15 -2 -15 12 0 26 19 19 26 -2 2 -10 -2 -17
-11z"/>
<path d="M963 3915 c0 -22 2 -30 4 -17 2 12 2 30 0 40 -3 9 -5 -1 -4 -23z"/>
<path d="M970 3866 c0 -33 100 -189 128 -200 15 -7 17 -10 -65 112 -35 52 -63
91 -63 88z"/>
<path d="M257 3863 c-4 -3 -7 -28 -7 -55 l0 -48 43 5 c119 16 116 14 95 59
-15 33 -109 61 -131 39z"/>
<path d="M2406 4042 c13 -13 24 -49 38 -128 29 -171 34 -182 35 -72 1 54 7
118 13 144 12 42 11 47 -7 60 -10 8 -37 14 -59 14 -39 0 -39 0 -20 -18z"/>
<path d="M1728 3993 c7 -3 16 -2 19 1 4 3 -2 6 -13 5 -11 0 -14 -3 -6 -6z"/>
<path d="M2141 3993 c0 -4 4 -17 9 -28 8 -19 9 -19 9 2 1 12 -3 25 -9 28 -5 3
-10 3 -9 -2z"/>
<path d="M2166 3945 c-3 -8 -1 -15 4 -15 6 0 10 7 10 15 0 8 -2 15 -4 15 -2 0
-6 -7 -10 -15z"/>
<path d="M2265 3889 c-4 -5 1 -20 12 -32 37 -44 63 -65 68 -56 4 5 2 9 -4 9
-11 0 -41 56 -41 77 0 16 -26 18 -35 2z"/>
<path d="M2200 3797 c0 -10 -4 -15 -10 -12 -5 3 -10 2 -10 -4 0 -5 4 -11 9
-13 6 -1 19 -23 30 -48 17 -40 20 -42 20 -17 1 15 -3 27 -7 27 -4 0 -9 12 -10
26 -1 14 -6 33 -12 42 -9 16 -9 15 -10 -1z"/>
<path d="M2340 3774 c0 -4 8 -13 18 -21 9 -8 11 -11 3 -7 -11 5 -13 3 -8 -9 4
-11 -2 -24 -15 -37 -12 -11 -19 -23 -15 -26 11 -11 87 46 87 65 0 7 -53 41
-64 41 -3 0 -6 -3 -6 -6z"/>
<path d="M2163 3746 c7 -14 13 -23 15 -21 7 6 -9 45 -18 45 -4 0 -3 -11 3 -24z"/>
<path d="M2135 3710 c5 -16 3 -19 -12 -13 -17 6 -17 5 1 -15 11 -12 24 -22 30
-22 6 0 5 4 -3 9 -8 5 -9 11 -3 15 5 3 15 -1 21 -8 8 -10 9 -16 2 -21 -13 -8
8 -52 38 -79 21 -19 21 -19 21 12 0 17 -5 34 -12 38 -8 5 -9 2 -5 -9 3 -10 3
-17 -2 -17 -14 0 -20 39 -7 43 6 2 -8 22 -32 45 -29 28 -41 35 -37 22z"/>
<path d="M2442 3688 c-7 -7 -12 -19 -12 -27 0 -11 5 -8 16 7 18 25 15 39 -4
20z"/>
<path d="M2230 3657 c0 -10 9 -27 20 -39 26 -28 26 -18 0 24 -14 23 -20 27
-20 15z"/>
<path d="M2120 3652 c0 -5 7 -15 15 -22 8 -7 15 -8 15 -2 0 5 -7 15 -15 22 -8
7 -15 8 -15 2z"/>
<path d="M2106 3592 c-3 -5 -1 -14 5 -22 6 -11 9 -12 9 -2 0 7 5 10 10 7 6 -3
10 -2 10 3 0 13 -28 23 -34 14z"/>
<path d="M2081 3557 c10 -21 9 -30 -2 -43 -11 -13 -11 -17 4 -25 9 -5 14 -16
10 -25 -5 -13 -7 -13 -17 1 -22 30 -47 -10 -32 -53 12 -35 0 -38 -18 -5 -8 15
-15 23 -16 17 0 -5 7 -19 15 -30 19 -25 19 -35 0 -28 -8 4 -15 1 -15 -5 0 -6
5 -11 12 -11 9 0 9 -3 0 -12 -10 -10 -14 -10 -21 0 -5 8 -8 0 -8 -20 0 -17 -5
-34 -11 -36 -7 -2 -9 -9 -5 -15 5 -7 8 -42 8 -78 0 -61 -2 -67 -20 -63 -23 4
-38 -15 -24 -32 8 -9 5 -11 -11 -7 -12 3 -25 16 -30 28 -5 13 -15 26 -22 30
-10 6 -10 5 -1 -5 6 -7 9 -18 7 -25 -3 -6 2 -18 11 -25 17 -14 21 -45 4 -34
-8 4 -9 -1 -4 -16 5 -16 4 -20 -5 -15 -6 4 -10 18 -7 31 2 13 0 21 -5 18 -5
-3 -12 3 -15 14 -3 11 -11 23 -19 26 -12 5 -12 0 1 -24 9 -17 12 -30 8 -30 -4
0 -2 -5 5 -12 7 -7 12 -30 11 -52 0 -31 -2 -36 -8 -21 -5 11 -6 25 -4 31 2 7
0 15 -6 19 -6 3 -11 -1 -11 -10 0 -9 -4 -13 -10 -10 -5 3 -8 21 -6 39 3 17 1
38 -4 46 -6 9 -8 6 -9 -11 -2 -59 -5 -68 -18 -57 -17 14 -17 -2 0 -27 18 -29
40 -95 33 -102 -3 -4 -6 1 -6 10 0 10 -4 17 -9 17 -4 0 -12 15 -18 33 -6 21
-15 31 -25 29 -12 -2 -15 3 -11 20 4 22 4 22 -11 4 -9 -11 -16 -26 -16 -34 0
-9 -6 -12 -16 -8 -12 5 -14 1 -8 -17 4 -12 6 -38 6 -57 -1 -19 4 -37 10 -42 7
-4 9 -10 5 -15 -5 -4 -12 -1 -16 6 -12 19 -22 117 -15 149 6 27 5 26 -16 -5
-18 -28 -25 -31 -41 -22 -11 6 -24 21 -29 35 -5 13 -11 24 -13 24 -8 0 -1 -36
11 -58 13 -22 12 -22 -8 -10 -11 7 -23 21 -26 30 -8 27 -27 21 -22 -7 3 -13 2
-22 -2 -20 -9 6 -4 -64 4 -73 3 -3 2 -10 -4 -17 -5 -6 -12 -38 -16 -71 -6 -59
-14 -86 -14 -46 0 11 -8 29 -17 38 -16 16 -16 17 -2 12 13 -5 18 0 21 20 3 15
6 32 8 37 5 21 0 85 -7 85 -5 0 -9 -17 -9 -37 -2 -58 -7 -82 -16 -77 -4 3 -8
0 -8 -7 0 -7 -8 -5 -18 7 -10 10 -17 27 -14 36 2 9 -1 25 -7 35 -9 15 -10 11
-11 -23 0 -22 7 -49 15 -60 21 -28 18 -43 -4 -17 -17 20 -19 21 -23 5 -3 -9
-4 -34 -4 -54 1 -21 -2 -38 -6 -38 -4 0 -5 -6 -2 -14 3 -8 1 -23 -5 -33 -9
-14 -11 -6 -10 42 1 33 -2 68 -6 77 -4 9 -4 21 -1 27 4 5 2 12 -4 16 -6 4 -10
-6 -11 -22 0 -24 -1 -25 -9 -8 -8 19 -8 19 -18 -5 -8 -18 -11 -20 -11 -7 -2
33 -18 17 -25 -24 -7 -44 -1 -63 16 -53 6 4 3 -4 -8 -18 -10 -15 -21 -22 -23
-16 -2 6 3 15 10 20 10 6 7 7 -9 3 -21 -6 -23 -4 -17 17 15 54 -16 -10 -36
-74 -11 -38 -22 -68 -25 -68 -6 0 0 75 7 80 4 3 9 21 13 40 l7 35 -14 -30 c-8
-16 -24 -39 -36 -50 -18 -15 -26 -17 -41 -8 -14 10 -21 9 -31 -3 -6 -8 -9 -17
-5 -21 3 -3 6 0 6 8 0 11 2 11 10 -1 5 -8 10 -21 10 -29 0 -10 -3 -11 -14 -2
-10 9 -16 9 -21 1 -4 -6 -4 -14 -1 -17 3 -4 6 0 6 8 1 9 5 7 12 -6 15 -24 21
-102 9 -110 -5 -3 -8 10 -6 28 2 19 -1 40 -6 48 -7 11 -9 10 -10 -6 -1 -16 -2
-16 -9 5 -7 25 -7 24 -18 -10 -11 -34 -11 -34 -5 10 4 25 7 55 7 68 1 12 4 22
9 22 4 0 7 5 7 10 0 21 -20 9 -26 -15 -5 -19 -11 -24 -25 -20 -14 5 -24 -3
-39 -27 -11 -18 -20 -27 -20 -19 0 8 12 30 26 50 22 30 19 28 -20 -11 -35 -36
-46 -56 -47 -80 l-1 -33 -8 29 c-7 22 -5 33 11 49 21 23 26 45 6 29 -10 -9
-13 -5 -11 18 1 21 -2 27 -12 23 -8 -3 -14 -9 -14 -15 0 -5 5 -6 10 -3 16 10
12 -12 -5 -29 -16 -16 -45 -12 -45 6 0 6 6 5 15 -2 9 -8 15 -9 15 -2 0 6 -4
13 -10 17 -5 3 -7 13 -4 23 3 9 -3 2 -12 -15 -10 -18 -25 -33 -33 -33 -14 0
-40 -52 -43 -87 -1 -7 -5 -10 -9 -7 -4 2 -10 -2 -12 -8 -4 -10 -6 -10 -6 0 -1
7 6 24 15 37 9 14 14 34 11 45 -3 11 -2 18 3 15 4 -3 12 1 18 8 14 16 3 67
-14 67 -7 0 -11 6 -8 14 3 7 -2 16 -11 20 -9 3 -13 2 -10 -4 3 -6 1 -10 -4
-10 -6 0 -11 5 -11 11 0 5 -4 7 -10 4 -16 -10 -12 12 5 29 9 9 11 17 5 21 -5
3 -10 11 -10 16 0 6 5 7 11 4 6 -4 5 2 -3 14 -11 17 -10 25 4 49 12 20 15 40
11 65 -5 32 -2 37 25 51 16 8 39 13 51 11 15 -3 21 1 21 14 0 19 61 51 95 50
11 0 30 2 43 6 13 4 22 4 20 -1 -3 -10 5 -14 30 -13 10 0 12 3 5 6 -20 8 -15
23 8 23 11 0 18 -4 15 -9 -3 -4 10 -7 29 -5 27 2 36 -2 41 -18 4 -14 12 -19
28 -16 18 4 25 -2 34 -24 5 -15 7 -28 2 -28 -16 0 -4 -29 24 -57 24 -23 27
-24 17 -6 -6 12 -16 25 -21 28 -6 3 -10 11 -10 16 0 6 12 1 26 -10 28 -22 50
-28 39 -11 -3 6 1 10 10 10 10 0 15 6 12 13 -2 6 -7 23 -11 37 -6 20 -5 22 4
10 9 -12 10 -7 4 20 -4 19 -8 67 -9 106 -1 61 1 70 15 67 23 -6 22 28 -2 57
-10 14 -18 18 -15 10 2 -8 -2 -28 -10 -43 -11 -22 -12 -32 -2 -43 9 -11 9 -21
0 -40 -6 -14 -9 -30 -6 -35 4 -5 2 -9 -4 -9 -5 0 -11 -6 -14 -12 -2 -7 -3 -5
-2 4 2 10 -2 15 -11 11 -10 -4 -14 5 -15 33 -1 37 -2 37 -8 9 l-6 -29 -19 28
c-10 16 -13 25 -7 22 7 -5 9 -1 5 8 -4 10 1 18 10 22 16 6 16 8 0 25 -15 17
-15 19 -1 19 16 0 60 -63 60 -87 0 -7 4 -10 9 -5 9 9 -11 70 -29 90 -7 7 -13
10 -13 6 0 -3 -7 -1 -16 7 -13 10 -17 10 -24 -1 -5 -8 -6 -18 -3 -22 2 -5 0
-14 -5 -21 -13 -17 -21 -67 -11 -67 5 0 9 -4 9 -10 0 -5 -7 -7 -15 -4 -9 4
-15 0 -15 -7 -1 -9 -6 -7 -15 5 -11 14 -15 16 -15 5 -1 -8 -6 -4 -14 10 l-13
23 -7 -23 c-5 -20 -8 -21 -16 -9 -6 10 -10 11 -10 3 0 -18 -21 -12 -42 12 -11
13 -17 15 -18 7 0 -7 -3 -11 -8 -9 -4 3 -23 -2 -42 -12 -42 -20 -71 -17 -67 8
4 26 36 72 47 66 4 -3 7 3 5 12 -2 10 -4 21 -4 24 -1 4 -13 14 -27 24 -25 16
-27 16 -50 -6 -18 -16 -23 -30 -19 -46 3 -12 1 -25 -5 -28 -5 -3 -10 -14 -10
-23 0 -10 -9 -23 -20 -29 -16 -11 -18 -10 -14 2 4 8 1 15 -5 15 -6 0 -11 -7
-11 -16 0 -10 -6 -14 -15 -10 -8 3 -15 1 -15 -5 0 -6 -7 -6 -20 1 -16 9 -19 8
-13 -6 5 -13 3 -15 -8 -9 -8 5 -4 -3 9 -17 22 -25 29 -48 13 -48 -13 0 -41 46
-47 79 -7 31 11 50 29 32 16 -16 30 -14 23 4 -3 8 -1 15 3 15 5 0 12 -6 14
-12 4 -10 6 -9 6 1 1 8 -7 19 -16 26 -16 12 -16 14 2 41 11 16 21 40 22 54 1
13 10 30 19 37 10 7 15 15 12 18 -8 8 -36 -27 -40 -50 -1 -11 -11 -26 -20 -33
-10 -7 -20 -28 -24 -47 -4 -22 -10 -32 -19 -29 -8 4 -16 -6 -20 -25 -4 -17
-11 -31 -16 -31 -5 0 -9 -9 -9 -20 0 -22 16 -27 23 -7 2 6 3 4 2 -5 -2 -10 1
-18 7 -18 5 0 6 -4 3 -10 -3 -5 -11 -10 -16 -10 -6 0 -8 4 -5 8 3 5 -2 9 -10
9 -10 0 -7 -8 11 -27 29 -31 34 -55 8 -45 -15 5 -16 4 -5 -6 6 -7 12 -18 12
-23 0 -6 -7 -3 -14 7 -8 10 -12 26 -9 36 7 27 -21 33 -37 8 -12 -20 -12 -21 3
-8 15 12 17 11 17 -12 0 -15 10 -36 23 -47 16 -16 17 -19 5 -15 -11 5 -18 2
-18 -5 0 -9 -7 -7 -20 5 -19 17 -20 17 -20 1 0 -9 -4 -15 -9 -12 -14 9 -21
-22 -11 -50 14 -37 11 -43 -6 -11 -8 15 -18 27 -23 27 -12 0 -20 49 -10 56 5
3 8 15 7 27 -1 12 2 32 6 45 13 40 -1 23 -28 -34 -15 -31 -30 -54 -33 -50 -4
3 -1 12 5 18 18 18 15 38 -5 31 -16 -6 -16 -4 2 18 18 23 18 23 -8 -2 -16 -14
-29 -35 -30 -47 0 -11 -5 -18 -9 -16 -5 3 -6 10 -3 15 4 5 1 9 -4 9 -13 0 -15
-37 -3 -42 4 -1 2 -14 -6 -28 -13 -23 -13 -23 -9 -2 3 12 1 20 -4 16 -5 -3 -9
-12 -9 -20 0 -8 -5 -14 -11 -14 -6 0 -8 7 -5 16 3 8 2 12 -4 9 -6 -3 -10 -15
-10 -26 0 -13 4 -18 12 -13 7 5 9 2 6 -7 -5 -14 21 -133 34 -154 3 -5 9 -25
13 -43 3 -18 11 -30 16 -26 5 3 9 -6 9 -20 0 -14 3 -26 8 -26 7 0 33 -52 33
-67 0 -4 9 -23 20 -40 11 -18 22 -45 24 -60 2 -16 4 -32 5 -38 1 -5 8 6 16 25
13 32 14 33 10 7 -4 -31 13 -87 26 -87 4 0 8 -6 8 -14 0 -7 7 -19 15 -26 9 -7
14 -19 11 -27 -3 -7 -2 -13 3 -13 5 0 12 -12 16 -27 7 -30 39 -66 49 -56 3 4
6 1 6 -5 0 -7 7 -12 15 -12 8 0 15 -5 15 -10 0 -6 3 -9 8 -9 21 4 34 -3 43
-25 8 -16 17 -22 27 -18 11 4 14 1 9 -10 -4 -12 -1 -14 14 -11 20 6 26 -11 8
-22 -17 -11 -69 -87 -69 -101 0 -8 6 -11 16 -7 15 6 4 -19 -40 -90 -7 -12 -26
-56 -41 -97 -15 -41 -31 -84 -35 -95 -5 -11 -11 -36 -14 -55 -4 -19 -19 -60
-35 -90 -16 -30 -48 -93 -73 -140 -24 -47 -64 -121 -89 -165 -25 -44 -70 -125
-98 -180 -29 -55 -102 -190 -162 -301 -135 -247 -171 -338 -193 -480 -10 -60
-21 -126 -25 -147 l-9 -37 2011 2 2010 3 19 95 c29 141 28 381 -2 515 -58 264
-171 548 -360 900 -109 203 -261 403 -467 616 -41 41 -86 93 -101 115 -15 21
-36 46 -47 54 -63 46 -165 155 -165 175 0 15 -16 36 -47 61 -27 21 -56 46 -66
56 -10 10 -21 18 -25 19 -4 0 -27 2 -52 5 -44 5 -44 5 -22 -11 24 -18 29 -47
10 -63 -22 -17 -75 -24 -84 -11 -4 8 -3 9 4 5 8 -5 10 -1 5 10 -5 13 -3 16 10
11 9 -3 19 -2 22 3 4 6 -1 10 -9 10 -9 0 -23 14 -32 31 -12 25 -18 29 -27 19
-9 -10 -9 -14 1 -17 6 -3 12 -11 12 -19 0 -9 5 -12 10 -9 6 3 10 2 10 -3 0
-15 -44 -50 -82 -66 -36 -15 -37 -15 -44 7 -11 37 -25 49 -41 36 -11 -10 -11
-15 3 -30 11 -12 13 -19 5 -19 -7 0 -10 -4 -6 -10 3 -5 13 -7 23 -4 14 5 14 4
-1 -6 -16 -10 -23 -8 -46 14 -32 31 -46 34 -31 7 7 -14 7 -22 0 -26 -6 -4 -10
-3 -9 2 4 26 -2 34 -23 28 -16 -4 -19 -3 -10 3 11 7 10 12 -3 26 -9 9 -12 16
-7 16 5 0 15 -7 23 -16 12 -14 14 -14 25 1 7 9 17 14 22 11 15 -9 46 19 37 34
-6 10 -10 10 -20 -3 -7 -11 -16 -13 -26 -6 -12 7 -11 9 3 9 9 0 20 5 23 11 15
23 -6 20 -61 -10 -46 -24 -53 -26 -38 -10 11 12 44 34 74 50 30 16 44 27 30
23 -14 -3 -45 -17 -69 -30 -24 -13 -47 -21 -52 -18 -5 3 -9 -1 -9 -9 0 -13
-78 -83 -84 -76 -2 2 -7 14 -10 26 -6 18 -4 22 8 17 12 -5 15 -2 9 11 -5 15
-2 17 14 13 16 -4 19 -2 16 13 -3 11 0 19 7 19 14 0 5 48 -11 65 -7 7 -9 6 -7
-2 4 -13 -89 -83 -106 -79 -6 2 -7 1 -3 -2 4 -2 -9 -17 -30 -33 -39 -29 -59
-37 -48 -19 3 6 1 10 -5 10 -6 0 -8 5 -5 10 4 6 15 8 25 5 10 -3 21 -1 25 4 3
7 0 8 -9 5 -30 -12 -15 3 45 46 33 23 58 44 55 47 -2 3 -38 -21 -80 -52 -63
-48 -74 -60 -66 -75 11 -21 -21 -57 -41 -44 -7 4 -10 3 -5 -4 7 -12 -32 -38
-53 -33 -7 1 -10 -2 -6 -9 3 -6 1 -9 -6 -8 -12 3 -14 -1 -18 -33 0 -6 -8 -8
-17 -5 -14 5 -15 4 -5 -8 6 -7 9 -21 5 -29 -3 -9 3 -26 16 -39 l21 -23 -10 28
c-7 18 -7 26 -1 22 5 -3 19 -8 31 -10 16 -3 19 0 15 12 -5 13 -4 14 9 3 21
-17 19 -30 -5 -25 -12 2 -20 -2 -20 -9 0 -8 -12 -21 -26 -31 -15 -9 -23 -12
-19 -5 12 19 -37 1 -58 -22 -16 -16 -21 -17 -34 -6 -14 11 -13 13 6 18 23 5
26 26 4 24 -7 -1 -10 2 -7 7 3 5 20 7 37 5 18 -3 26 -3 19 0 -6 3 -9 11 -5 17
4 7 -1 6 -10 -2 -9 -7 -17 -10 -17 -5 0 4 12 18 28 31 15 12 23 22 17 22 -5 1
-32 -20 -58 -44 -26 -25 -54 -45 -62 -45 -7 0 -17 -5 -20 -10 -4 -6 -14 -9
-23 -6 -12 3 -28 -9 -49 -39 -18 -24 -29 -45 -25 -48 4 -2 1 -2 -6 0 -8 2 -21
-6 -30 -17 -17 -19 -17 -19 -35 17 l-18 36 25 -17 c14 -9 26 -12 26 -7 0 5 -5
13 -11 16 -10 7 26 40 43 40 4 0 17 8 28 18 11 9 24 17 28 17 4 0 18 9 32 20
14 11 45 34 69 51 24 17 46 40 48 50 3 11 11 18 17 16 6 -2 17 1 25 7 28 22
91 89 91 97 0 5 5 9 11 9 5 0 7 -4 4 -10 -4 -6 1 -7 11 -3 12 4 15 3 10 -5 -4
-7 -2 -12 3 -12 15 0 14 20 -2 26 -20 7 -18 44 4 72 10 14 19 32 19 40 0 8 3
12 6 9 4 -4 22 7 40 23 18 16 72 52 119 81 47 29 85 54 85 56 0 5 -89 -44
-152 -84 -45 -27 -44 -27 -52 -8 -6 16 -4 22 28 83 19 35 14 98 -6 86 -7 -4
-8 -2 -4 4 9 15 34 4 38 -16 5 -27 58 37 57 68 -1 14 3 38 10 54 8 21 8 32 1
42 -8 9 -8 18 0 33 7 14 7 21 0 21 -5 0 -10 7 -10 15 0 10 6 12 18 8 15 -6 15
-5 4 10 -8 8 -21 13 -30 10 -11 -3 -13 -2 -6 4 6 4 14 20 18 36 6 24 10 26 33
21 22 -6 25 -4 20 10 -4 10 -7 21 -7 24 0 4 -4 2 -8 -5 -5 -9 -11 -6 -21 9
-11 18 -11 20 3 15 10 -4 13 -1 10 7 -3 8 -14 12 -25 9 -15 -4 -19 0 -19 18 0
19 2 21 10 9 5 -8 12 -11 17 -7 4 5 3 11 -3 15 -6 4 -14 14 -17 22 -4 12 -6
11 -6 -2 -1 -17 -20 -26 -22 -10 0 4 -2 15 -4 25 -2 10 3 21 10 24 12 4 12 8
1 26 -8 12 -13 33 -11 47 1 14 -4 34 -11 45 -8 11 -14 15 -14 9 0 -5 5 -15 12
-22 9 -9 8 -12 -5 -12 -9 0 -18 6 -19 13 0 6 -2 17 -2 23 -1 6 -7 18 -15 27
-7 9 -10 21 -6 26 3 6 0 9 -7 6 -8 -3 -15 -16 -16 -30 -1 -17 2 -23 12 -19 10
4 12 -2 8 -22 -5 -26 -6 -26 -18 -9 -8 10 -14 33 -14 51 0 17 -7 37 -16 44
-13 12 -14 10 -3 -13z m-1 -139 c0 -14 -18 -9 -24 8 -11 28 -6 39 9 20 8 -11
15 -23 15 -28z m33 4 c-6 -23 -23 -31 -19 -9 2 16 17 39 22 35 2 -2 1 -14 -3
-26z m74 -13 c16 -36 0 -62 -21 -34 -15 20 -15 20 -16 -2 0 -13 4 -23 9 -23 5
0 14 -13 21 -30 7 -16 16 -30 21 -30 14 0 10 -29 -7 -55 -10 -15 -12 -25 -5
-25 6 0 11 6 11 14 0 8 6 16 14 19 9 4 12 0 9 -13 -3 -10 -11 -21 -19 -24 -8
-3 -14 -18 -15 -33 0 -15 -3 -22 -6 -15 -2 6 -9 10 -14 6 -5 -3 -9 -1 -9 5 0
5 4 12 8 15 5 3 7 19 4 35 -3 23 0 33 13 37 9 4 13 10 8 13 -5 3 -17 23 -26
44 -10 20 -22 37 -27 37 -6 0 -10 9 -10 20 0 11 5 20 10 20 6 0 10 6 9 13 -3
18 13 50 20 40 4 -4 12 -20 18 -34z m-114 -38 c-3 -11 -11 -22 -19 -25 -17 -6
-17 -1 -4 25 14 25 30 25 23 0z m7 -41 c0 -5 -4 -10 -10 -10 -5 0 -10 5 -10
10 0 6 5 10 10 10 6 0 10 -4 10 -10z m-36 -36 c-4 -32 -2 -35 11 -24 13 11 14
8 10 -21 l-6 -34 15 30 c13 26 14 27 15 8 1 -12 6 -25 12 -28 6 -4 8 -14 5
-22 -4 -9 -1 -22 5 -30 18 -21 14 -122 -5 -139 -9 -8 -12 -9 -7 -3 6 8 5 17
-5 26 -8 8 -14 20 -14 26 0 7 7 3 15 -7 14 -18 15 -16 15 26 0 57 -7 78 -27
78 -13 0 -13 2 -2 18 13 15 12 16 -3 4 -9 -7 -17 -21 -16 -30 0 -9 -4 -28 -8
-41 -5 -18 -4 -23 7 -19 8 3 15 10 15 16 1 7 2 17 3 24 1 9 4 9 12 1 13 -13 2
-56 -12 -48 -5 4 -9 1 -9 -5 0 -6 -5 -8 -10 -5 -6 4 -22 -1 -35 -9 -23 -15
-25 -15 -25 -1 0 9 5 13 10 10 6 -3 10 -1 10 5 0 6 4 9 9 5 16 -9 17 39 1 53
-13 11 -11 12 10 7 18 -5 21 -4 11 4 -12 8 -13 12 -1 25 11 14 11 16 -2 11
-10 -4 -14 3 -14 27 0 46 -12 77 -24 59 -5 -8 -4 -25 1 -39 8 -22 8 -23 -6
-12 -22 18 -19 38 11 65 15 14 28 25 30 25 2 0 1 -16 -2 -36z m103 -30 c1 -46
-2 -64 -10 -61 -7 2 -11 12 -9 21 2 9 -1 16 -5 15 -20 -3 -23 2 -9 17 9 8 16
26 16 38 0 18 7 36 14 36 1 0 2 -30 3 -66z m-797 -85 c0 -5 -4 -9 -10 -9 -5 0
-10 7 -10 16 0 8 5 12 10 9 6 -3 10 -10 10 -16z m656 -4 c-1 -33 -16 -33 -16
0 0 14 4 25 9 25 5 0 8 -11 7 -25z m157 -45 c-3 -11 -7 -20 -9 -20 -2 0 -4 9
-4 20 0 11 4 20 9 20 5 0 7 -9 4 -20z m-1284 -29 c-6 -18 -14 -30 -17 -27 -3
3 -16 -7 -28 -22 -13 -15 -24 -22 -24 -16 0 6 16 28 35 48 19 21 35 42 35 48
0 6 2 9 5 6 3 -2 0 -19 -6 -37z m1323 16 c2 -13 -1 -29 -9 -35 -11 -11 -13 -6
-11 23 3 40 14 46 20 12z m-48 -43 c-6 -21 -4 -25 7 -19 11 6 11 5 3 -4 -7 -8
-9 -25 -4 -47 4 -18 4 -32 0 -29 -12 7 -23 81 -15 105 9 29 17 25 9 -6z
m-1367 -28 c-3 -8 -1 -17 6 -19 7 -2 9 -7 6 -11 -3 -3 -14 1 -25 9 -16 13 -17
16 -4 25 20 13 23 13 17 -4z m1212 -38 c1 -5 -3 -8 -7 -8 -4 0 -8 12 -9 28 -1
23 -1 24 7 7 5 -11 9 -23 9 -27z m65 7 c16 -21 21 -23 34 -13 13 11 14 10 4
-9 l-12 -22 -30 30 c-31 32 -35 39 -22 39 4 0 16 -11 26 -25z m162 -7 c-4 -18
-7 -43 -6 -56 0 -12 -7 -25 -15 -28 -8 -4 -15 -14 -15 -23 0 -14 -2 -14 -10
-1 -6 10 -5 17 5 23 25 14 17 29 -7 16 -23 -12 -23 -12 -5 9 11 12 16 26 11
33 -4 7 -3 10 3 6 6 -4 16 0 22 7 8 10 9 16 1 21 -5 3 -10 1 -10 -6 0 -7 -3
-9 -6 -6 -8 8 14 37 28 37 6 0 8 -13 4 -32z m-189 -30 c-3 -8 -6 -5 -6 6 -1
11 2 17 5 13 3 -3 4 -12 1 -19z m-1307 2 c0 -5 -2 -10 -4 -10 -3 0 -8 5 -11
10 -3 6 -1 10 4 10 6 0 11 -4 11 -10z m1190 -21 c0 -6 -4 -7 -10 -4 -5 3 -10
11 -10 16 0 6 5 7 10 4 6 -3 10 -11 10 -16z m-140 -30 c0 -11 -4 -17 -10 -14
-5 3 -10 15 -10 26 0 11 5 17 10 14 6 -3 10 -15 10 -26z m356 3 c-17 -16 -18
-16 -5 5 7 12 15 20 18 17 3 -2 -3 -12 -13 -22z m-386 -20 c0 -15 -2 -15 -10
-2 -13 20 -13 33 0 25 6 -3 10 -14 10 -23z m235 8 c10 -11 16 -20 13 -20 -3 0
-13 9 -23 20 -10 11 -16 20 -13 20 3 0 13 -9 23 -20z m45 -13 c0 -5 -4 -5 -10
-2 -5 3 -10 14 -10 23 0 15 2 15 10 2 5 -8 10 -19 10 -23z m-150 -9 c0 -18 -2
-20 -9 -8 -6 8 -7 18 -5 22 9 14 14 9 14 -14z m190 12 c0 -5 -4 -10 -10 -10
-5 0 -10 5 -10 10 0 6 5 10 10 10 6 0 10 -4 10 -10z m-369 -90 c3 -3 2 -16 -2
-30 -4 -14 -7 -19 -8 -12 -1 7 -6 10 -12 6 -6 -3 -9 -19 -7 -35 3 -15 1 -26
-4 -23 -13 8 -9 51 5 66 11 10 11 20 3 46 -7 18 -15 30 -19 25 -5 -4 -5 1 -1
12 7 16 10 14 23 -16 9 -19 19 -36 22 -39z m59 60 c0 -5 -5 -10 -11 -10 -5 0
-7 5 -4 10 3 6 8 10 11 10 2 0 4 -4 4 -10z m288 -15 c-3 -3 -9 2 -12 12 -6 14
-5 15 5 6 7 -7 10 -15 7 -18z m-223 -16 c-3 -12 -7 -24 -10 -27 -3 -3 -3 5 -1
19 6 30 5 29 10 29 3 0 3 -10 1 -21z m285 17 c0 -2 -7 -9 -15 -16 -13 -11 -14
-10 -9 4 5 14 24 23 24 12z m-1540 -28 c14 -18 15 -24 4 -35 -18 -18 -23 -16
-17 7 3 11 0 27 -7 35 -7 8 -9 15 -5 15 4 0 15 -10 25 -22z m77 -47 c0 -11 -4
-18 -8 -15 -4 2 -6 13 -4 24 2 10 -3 24 -11 30 -7 7 -11 17 -8 22 8 13 33 -37
31 -61z m1005 14 c7 -18 7 -18 -4 -3 -11 16 -14 15 -29 -8 -14 -21 -17 -23
-23 -9 -3 9 -2 14 3 10 5 -3 15 8 23 25 7 17 15 24 17 18 2 -7 8 -22 13 -33z
m461 -15 c-3 -11 -9 -23 -14 -26 -10 -6 -12 29 -2 39 13 13 21 7 16 -13z
m-1523 -59 c-1 -10 -6 -7 -15 9 -19 33 -18 50 0 26 8 -11 15 -27 15 -35z m60
1 c0 -15 -2 -15 -10 -2 -13 20 -13 33 0 25 6 -3 10 -14 10 -23z m710 17 c0 -5
-4 -8 -9 -4 -6 3 -14 -3 -20 -12 -9 -16 -10 -16 -11 -1 0 15 12 25 33 27 4 1
7 -4 7 -10z m86 -35 c1 -14 0 -23 -4 -20 -3 4 -8 19 -10 34 -2 15 0 23 4 20 4
-4 8 -19 10 -34z m157 6 c3 -11 1 -18 -4 -14 -5 3 -9 12 -9 20 0 20 7 17 13
-6z m507 0 c0 -5 -9 -14 -20 -20 -19 -10 -20 -10 -8 9 13 22 28 28 28 11z
m-1517 -40 c-7 -28 -13 -25 -13 6 0 14 4 23 9 20 5 -3 7 -15 4 -26z m50 15
c-3 -9 -8 -14 -10 -11 -3 3 -2 9 2 15 9 16 15 13 8 -4z m694 -100 c23 -60 22
-72 -2 -25 -24 46 -35 80 -27 80 4 0 17 -25 29 -55z m-125 23 c-7 -7 -12 -8
-12 -2 0 14 12 26 19 19 2 -3 -1 -11 -7 -17z m1068 18 c0 -2 -7 -7 -16 -10 -8
-3 -12 -2 -9 4 6 10 25 14 25 6z m-1710 -20 c0 -3 -4 -8 -10 -11 -5 -3 -10 -1
-10 4 0 6 5 11 10 11 6 0 10 -2 10 -4z m615 -38 c-8 -51 -26 -90 -20 -43 2 17
4 42 4 58 1 15 6 27 11 27 7 0 9 -15 5 -42z m-412 17 c-3 -9 -8 -14 -10 -11
-3 3 -2 9 2 15 9 16 15 13 8 -4z m1436 -8 c-2 -1 -13 -9 -24 -17 -19 -14 -19
-14 -6 3 7 9 18 17 24 17 6 0 8 -1 6 -3z m-940 -66 c1 -35 -5 -22 -12 24 -5
28 -4 34 3 20 5 -11 9 -31 9 -44z m-469 39 c0 -5 -5 -10 -11 -10 -5 0 -7 5 -4
10 3 6 8 10 11 10 2 0 4 -4 4 -10z m251 -13 c-10 -9 -11 -8 -5 6 3 10 9 15 12
12 3 -3 0 -11 -7 -18z m349 -21 c0 -6 -7 -1 -15 10 -8 10 -15 23 -15 28 0 6 7
1 15 -10 8 -10 15 -23 15 -28z m1010 40 c0 -3 -4 -8 -10 -11 -5 -3 -10 -1 -10
4 0 6 5 11 10 11 6 0 10 -2 10 -4z m-946 -32 c3 -8 2 -12 -4 -9 -6 3 -10 10
-10 16 0 14 7 11 14 -7z m-451 -69 c5 -31 4 -36 -4 -22 -17 29 -29 79 -22 90
8 13 18 -14 26 -68z m1216 56 c9 -16 2 -25 -45 -61 -45 -34 -58 -39 -70 -30
-10 9 -14 9 -14 1 0 -6 5 -11 10 -11 16 0 -7 -38 -31 -51 -17 -8 -23 -7 -34 8
-8 11 -10 22 -4 29 5 6 7 18 3 27 -8 21 28 41 44 25 9 -9 12 -8 12 4 0 9 -4
20 -10 23 -15 10 -12 19 13 34 19 13 21 12 10 -1 -10 -11 -10 -21 -1 -46 14
-37 18 -38 46 -13 26 22 28 31 7 31 -8 0 -14 -5 -12 -11 1 -6 -4 -14 -10 -16
-19 -7 -16 18 5 33 10 7 29 10 46 7 21 -4 27 -3 22 6 -4 6 -12 9 -17 6 -10 -7
-12 8 -2 18 11 12 22 8 32 -12z m-1476 -6 c-3 -9 -8 -14 -10 -11 -3 3 -2 9 2
15 9 16 15 13 8 -4z m30 -5 c-5 -19 -23 -29 -23 -12 0 7 20 32 26 32 1 0 0 -9
-3 -20z m324 -25 c-7 -13 -14 -20 -15 -14 -2 5 2 16 8 24 18 21 20 18 7 -10z
m303 4 c0 -6 -4 -7 -10 -4 -5 3 -10 11 -10 16 0 6 5 7 10 4 6 -3 10 -11 10
-16z m870 13 c0 -4 -15 -16 -32 -26 l-33 -17 30 25 c33 29 35 30 35 18z m-210
-19 c0 -5 -15 -16 -33 -26 l-32 -19 24 26 c24 26 41 33 41 19z m-1350 -24 c-7
-11 -9 -28 -5 -37 5 -13 4 -14 -6 -5 -10 10 -10 18 -1 38 6 14 14 25 17 25 3
0 1 -9 -5 -21z m344 -3 c-3 -9 -10 -16 -15 -16 -6 0 -5 9 1 21 13 24 24 20 14
-5z m206 2 c0 -16 -3 -19 -11 -11 -6 6 -8 16 -5 22 11 17 16 13 16 -11z m1030
-3 c-7 -9 -15 -13 -19 -10 -3 3 1 10 9 15 21 14 24 12 10 -5z m159 12 c-2 -1
-13 -9 -24 -17 -19 -14 -19 -14 -6 3 7 9 18 17 24 17 6 0 8 -1 6 -3z m-1164
-53 c-7 -25 -17 -49 -21 -52 -3 -4 -3 4 1 18 5 14 9 34 9 45 1 16 13 34 23 35
1 0 -4 -21 -12 -46z m905 33 c0 -2 -10 -12 -22 -23 l-23 -19 19 23 c18 21 26
27 26 19z m-1263 -29 c-3 -8 -6 -5 -6 6 -1 11 2 17 5 13 3 -3 4 -12 1 -19z
m187 -203 c3 -11 0 -6 -8 10 -8 17 -16 44 -17 60 l-1 30 -8 -30 c-8 -30 -8
-30 -9 8 -1 23 3 36 9 32 6 -3 10 1 10 10 0 9 -3 14 -7 12 -5 -3 -6 18 -4 46
4 47 6 42 17 -53 6 -58 14 -114 18 -125z m23 203 c-3 -8 -6 -5 -6 6 -1 11 2
17 5 13 3 -3 4 -12 1 -19z m1217 -7 c-135 -74 -270 -193 -402 -353 -25 -31
-48 -55 -51 -53 -2 3 13 23 33 46 21 22 35 47 32 54 -3 9 0 12 8 9 7 -3 16 2
19 11 8 19 -24 53 -44 47 -11 -3 -11 -2 1 7 11 7 20 5 37 -11 21 -19 43 -18
43 3 0 6 -10 20 -23 32 -13 12 -15 16 -5 8 10 -8 18 -11 18 -6 0 4 7 1 16 -6
14 -11 18 -10 30 6 13 17 12 21 -8 37 -13 10 -18 18 -11 18 6 0 18 -6 26 -14
16 -17 25 -12 106 60 51 45 143 108 181 123 48 19 45 10 -6 -18z m-1674 4 c0
-8 -4 -15 -10 -15 -5 0 -10 7 -10 15 0 8 5 15 10 15 6 0 10 -7 10 -15z m1550
1 c0 -2 -7 -7 -16 -10 -8 -3 -12 -2 -9 4 6 10 25 14 25 6z m-1210 -43 c0 -27
-3 -34 -11 -26 -7 7 -9 23 -5 37 9 37 16 32 16 -11z m139 -20 c0 -34 -3 -50
-7 -40 -7 17 -4 97 4 97 2 0 4 -26 3 -57z m681 37 c-14 -11 -31 -20 -39 -20
-18 0 -13 5 24 24 40 21 45 20 15 -4z m-1130 3 c0 -5 -5 -15 -10 -23 -8 -12
-10 -11 -10 8 0 12 5 22 10 22 6 0 10 -3 10 -7z m532 -15 c-7 -7 -12 -8 -12
-2 0 14 12 26 19 19 2 -3 -1 -11 -7 -17z m-575 -10 c-3 -8 -6 -5 -6 6 -1 11 2
17 5 13 3 -3 4 -12 1 -19z m1353 2 c6 -11 8 -20 6 -20 -3 0 -10 9 -16 20 -6
11 -8 20 -6 20 3 0 10 -9 16 -20z m155 10 c-3 -5 -12 -10 -18 -10 -7 0 -6 4 3
10 19 12 23 12 15 0z m-925 -24 c0 -2 -7 -9 -15 -16 -13 -11 -14 -10 -9 4 5
14 24 23 24 12z m-587 -36 c-7 -28 -13 -25 -13 6 0 14 4 23 9 20 5 -3 7 -15 4
-26z m1477 26 c0 -2 -7 -7 -16 -10 -8 -3 -12 -2 -9 4 6 10 25 14 25 6z m-73
-56 c-2 -24 -10 -25 -28 -3 -12 15 -12 16 4 10 9 -3 17 -2 17 3 0 6 2 10 4 10
3 0 4 -9 3 -20z m-643 -41 c-9 -10 -22 -19 -27 -19 -6 0 -2 6 9 14 10 8 20 19
20 25 4 29 7 34 11 18 3 -10 -3 -27 -13 -38z m577 26 c5 4 6 -1 3 -9 -3 -9
-12 -16 -19 -16 -7 0 -15 -7 -19 -15 -3 -8 -11 -15 -17 -15 -7 0 -3 10 9 23
12 13 22 30 23 38 0 10 2 10 6 1 2 -6 9 -10 14 -7z m-291 -47 l-32 -33 27 38
c15 21 30 35 32 33 3 -3 -9 -20 -27 -38z m171 12 c-44 -39 -53 -39 -16 0 16
17 34 30 39 30 6 0 -4 -14 -23 -30z m-1171 -11 c0 -6 -4 -7 -10 -4 -5 3 -10
11 -10 16 0 6 5 7 10 4 6 -3 10 -11 10 -16z m378 -24 c-3 -3 -9 2 -12 12 -6
14 -5 15 5 6 7 -7 10 -15 7 -18z m502 -35 c0 -5 -4 -10 -10 -10 -5 0 -10 5
-10 10 0 6 5 10 10 10 6 0 10 -4 10 -10z m190 -33 l-34 -32 30 36 c16 20 31
34 33 32 3 -2 -10 -18 -29 -36z m-1050 2 c0 -6 -4 -7 -10 -4 -5 3 -10 11 -10
16 0 6 5 7 10 4 6 -3 10 -11 10 -16z m833 -7 c-6 -15 -4 -15 15 2 12 11 22 14
22 8 0 -14 -41 -43 -51 -36 -5 3 -21 -8 -36 -24 -16 -15 -21 -19 -12 -7 9 11
15 28 14 38 -3 14 1 16 18 11 19 -6 20 -5 8 10 -12 14 -12 16 4 10 14 -6 16
-4 10 6 -5 8 -4 11 3 6 6 -4 8 -14 5 -24z m-439 -144 c-6 -10 -5 -10 7 -2 11
9 17 9 26 -1 6 -7 11 -15 10 -17 -1 -2 3 3 10 11 9 10 16 11 25 3 7 -5 24 -9
38 -7 14 1 33 -2 42 -9 14 -11 14 -13 -1 -32 -9 -11 -27 -27 -40 -36 -13 -9
-60 -52 -103 -94 -71 -70 -81 -77 -99 -66 -11 7 -24 10 -30 6 -15 -9 9 -34 27
-27 9 3 14 -2 14 -16 0 -12 5 -21 12 -21 6 0 8 -3 4 -7 -4 -5 -13 -1 -19 7 -7
8 -21 15 -32 15 -11 0 -19 5 -18 12 3 12 -6 11 -44 -4 -24 -9 -55 -12 -47 -4
3 3 9 6 12 6 9 1 76 36 82 44 3 3 17 12 32 20 55 28 69 49 62 89 -4 20 -11 45
-16 55 -5 10 -5 24 1 36 6 10 7 21 3 25 -7 8 17 26 36 26 8 0 10 -5 6 -12z
m776 -1 c0 -2 -10 -12 -22 -23 l-23 -19 19 23 c18 21 26 27 26 19z m-553 -84
c-4 -3 3 -18 15 -32 l23 -26 -27 24 c-16 14 -28 19 -28 13 0 -6 16 -24 35 -39
19 -15 35 -34 35 -41 0 -7 5 -10 12 -6 7 4 8 3 4 -4 -4 -6 -13 -9 -21 -5 -8 3
-15 0 -15 -6 0 -11 6 -13 52 -15 32 -2 43 -10 33 -26 -5 -8 -13 -6 -28 7 -22
18 -22 18 -4 -4 18 -21 18 -22 -32 -70 -28 -28 -51 -45 -51 -39 0 6 -20 46
-45 89 -26 44 -43 83 -39 90 14 22 76 97 82 97 3 0 2 -3 -1 -7z m-443 -18
c-10 -8 -14 -15 -8 -15 5 0 19 -6 29 -14 17 -12 17 -15 -15 -49 l-33 -36 -28
22 c-25 20 -41 46 -20 33 10 -6 38 22 43 44 3 14 22 28 42 29 6 1 1 -6 -10
-14z m735 -169 c-75 -73 -109 -113 -114 -135 -4 -17 -10 -29 -15 -26 -4 2 -7
-13 -6 -35 0 -22 -5 -45 -12 -52 -11 -11 -11 -8 -3 15 15 39 14 50 -3 35 -8
-7 -14 -15 -14 -18 1 -18 -3 -30 -10 -30 -4 0 -7 15 -7 33 0 21 -4 31 -13 29
-8 -1 -11 2 -7 8 4 6 13 9 21 6 9 -3 11 0 7 11 -5 12 -3 14 6 8 10 -5 11 -2 6
14 -5 17 -3 20 11 14 14 -5 16 -2 12 21 -4 20 -2 26 8 22 8 -3 24 8 36 25 12
16 28 27 34 25 18 -7 107 81 98 95 -5 8 -2 10 8 7 8 -4 22 2 31 13 9 10 20 19
24 19 5 0 -40 -47 -98 -104z m-709 75 c0 -6 -11 -22 -25 -37 -14 -15 -25 -21
-25 -14 0 8 10 24 22 37 24 25 28 27 28 14z m85 -144 c-33 -23 -55 -28 -49
-12 6 13 23 21 54 24 10 1 8 -3 -5 -12z m-72 -12 c-3 -9 -8 -14 -10 -11 -3 3
-2 9 2 15 9 16 15 13 8 -4z m455 -5 c-7 -10 -14 -17 -17 -15 -4 4 18 35 25 35
2 0 -1 -9 -8 -20z m59 -10 c-4 -27 -17 -38 -17 -13 0 18 8 33 17 33 1 0 2 -9
0 -20z m-67 -42 c0 7 5 10 10 7 6 -3 10 2 10 11 0 24 10 12 16 -20 4 -25 3
-26 -16 -16 -25 13 -26 3 -2 -24 16 -20 16 -20 -1 -7 -18 15 -47 63 -47 78 1
4 7 -3 15 -17 8 -14 14 -19 15 -12z"/>
<path d="M2160 3416 c0 -8 4 -17 9 -20 5 -4 7 3 4 14 -6 23 -13 26 -13 6z"/>
<path d="M1376 1755 c9 -14 21 -25 27 -25 6 0 0 11 -13 25 -13 14 -25 25 -27
25 -2 0 4 -11 13 -25z"/>
<path d="M1369 1693 c-13 -16 -12 -17 4 -4 9 7 17 15 17 17 0 8 -8 3 -21 -13z"/>
<path d="M903 1843 c9 -9 20 -13 24 -9 4 4 1 11 -7 16 -25 16 -35 11 -17 -7z"/>
<path d="M872 1828 c-19 -19 -14 -29 8 -16 20 13 27 28 12 28 -4 0 -13 -5 -20
-12z"/>
<path d="M2174 3555 c-4 -8 -10 -12 -15 -9 -16 10 -9 -13 8 -27 11 -9 14 -10
9 -2 -4 7 -2 22 4 33 6 11 8 20 5 20 -3 0 -8 -7 -11 -15z"/>
<path d="M2052 3519 c-11 -17 -11 -24 -1 -33 9 -8 11 -7 6 6 -3 9 -1 18 5 20
6 2 9 9 7 16 -3 8 -9 4 -17 -9z"/>
<path d="M2190 3516 c0 -14 5 -28 10 -31 6 -3 10 5 10 19 0 14 -4 28 -10 31
-6 3 -10 -5 -10 -19z"/>
<path d="M658 3491 c-39 -23 -42 -38 -6 -33 28 4 44 21 36 40 -1 4 -15 1 -30
-7z"/>
<path d="M2226 3484 c-15 -14 -14 -34 1 -34 4 0 3 3 0 7 -4 3 0 15 10 25 20
22 11 24 -11 2z"/>
<path d="M1200 3469 c1 -25 23 -63 32 -54 9 9 -4 54 -18 66 -11 9 -14 7 -14
-12z"/>
<path d="M596 3471 c-4 -7 -5 -15 -2 -18 9 -9 19 4 14 18 -4 11 -6 11 -12 0z"/>
<path d="M1995 3450 c3 -5 8 -10 11 -10 2 0 4 5 4 10 0 6 -5 10 -11 10 -5 0
-7 -4 -4 -10z"/>
<path d="M2240 3440 c0 -5 5 -10 11 -10 5 0 7 5 4 10 -3 6 -8 10 -11 10 -2 0
-4 -4 -4 -10z"/>
<path d="M973 3433 c-7 -2 -13 -9 -13 -14 0 -6 4 -8 10 -4 12 8 80 -21 80 -34
0 -16 37 -13 43 2 14 38 -68 72 -120 50z"/>
<path d="M361 3380 c-5 -16 -6 -30 -1 -30 5 0 2 -14 -7 -31 -11 -23 -12 -34
-4 -42 16 -16 13 -31 -4 -17 -13 11 -14 3 -11 -56 2 -38 5 -69 6 -69 1 0 2
-28 4 -63 1 -36 8 -67 15 -75 11 -10 13 -9 8 6 -5 12 -3 16 4 11 7 -4 9 -21 6
-43 -4 -23 -1 -43 8 -55 14 -19 15 -19 21 0 4 10 13 34 20 52 8 21 9 32 2 32
-5 0 -7 7 -4 16 3 9 2 12 -5 9 -6 -4 -8 -12 -6 -19 3 -6 -2 -17 -10 -24 -12
-11 -13 -10 -8 10 19 84 23 113 18 122 -4 5 -7 28 -9 50 -3 57 -2 56 -21 49
-15 -5 -14 -3 2 10 17 14 18 19 7 37 -7 11 -10 25 -7 30 3 6 -1 7 -9 4 -11 -4
-16 0 -16 13 0 11 3 23 7 26 7 8 16 77 9 77 -2 0 -9 -13 -15 -30z m-1 -144 c0
-3 -4 -8 -10 -11 -5 -3 -10 -1 -10 4 0 6 5 11 10 11 6 0 10 -2 10 -4z m6 -82
c-4 -9 -9 -15 -11 -12 -3 3 -3 13 1 22 4 9 9 15 11 12 3 -3 3 -13 -1 -22z m5
-57 c-10 -9 -11 -8 -5 6 3 10 9 15 12 12 3 -3 0 -11 -7 -18z"/>
<path d="M716 3384 c-12 -31 -5 -42 35 -58 27 -11 38 -20 33 -29 -4 -6 2 -3
14 7 12 11 22 27 22 38 0 22 -2 22 54 -1 36 -16 44 -17 39 -5 -9 24 -62 46
-117 48 -29 1 -57 5 -63 9 -6 4 -14 0 -17 -9z"/>
<path d="M1045 3253 c8 -15 12 -30 10 -33 -3 -4 4 -15 13 -24 17 -15 18 -14 8
28 -6 25 -14 42 -18 40 -4 -3 -8 0 -8 5 0 6 -4 11 -9 11 -6 0 -4 -12 4 -27z"/>
<path d="M1920 3260 c6 -11 13 -20 16 -20 2 0 0 9 -6 20 -6 11 -13 20 -16 20
-2 0 0 -9 6 -20z"/>
<path d="M991 3255 c-1 -6 10 -22 24 -37 14 -15 25 -31 25 -36 0 -4 7 -17 15
-28 14 -18 15 -17 9 11 -4 17 -13 35 -21 42 -8 6 -15 20 -16 31 -1 15 -5 18
-13 11 -8 -7 -14 -6 -17 3 -3 7 -6 8 -6 3z"/>
<path d="M1880 3256 c0 -4 7 -14 15 -22 8 -9 15 -11 15 -6 0 5 -7 15 -15 22
-8 7 -15 9 -15 6z"/>
<path d="M879 3233 c-13 -16 -12 -17 4 -4 9 7 17 15 17 17 0 8 -8 3 -21 -13z"/>
<path d="M965 3240 c3 -5 8 -10 11 -10 2 0 4 5 4 10 0 6 -5 10 -11 10 -5 0 -7
-4 -4 -10z"/>
<path d="M1150 3244 c0 -7 -11 -9 -25 -6 -30 5 -31 -3 -8 -49 10 -19 16 -41
15 -51 -2 -9 2 -20 9 -24 9 -5 11 2 6 29 -3 21 -2 37 4 37 5 0 10 -10 10 -22
1 -19 2 -19 6 -5 3 10 11 16 18 13 8 -3 15 4 17 18 5 27 0 46 -14 46 -6 0 -7
-7 -4 -16 4 -10 2 -13 -6 -8 -8 5 -9 2 -4 -11 5 -15 4 -16 -9 -5 -12 10 -13
15 -4 20 8 6 8 13 0 26 -6 11 -11 14 -11 8z m-12 -32 c6 -18 -15 -14 -22 4 -4
10 -1 14 6 12 6 -2 14 -10 16 -16z"/>
<path d="M1954 3212 c-1 -9 -4 -24 -8 -32 -3 -9 0 -24 8 -35 12 -17 13 -15 12
27 -1 45 -11 75 -12 40z"/>
<path d="M718 3198 c-20 -25 -23 -38 -8 -38 6 0 10 5 10 12 0 6 7 20 17 30 9
10 12 18 7 18 -5 0 -17 -10 -26 -22z"/>
<path d="M969 3203 c7 -15 17 -20 28 -16 14 5 14 8 2 11 -7 3 -20 10 -28 16
-12 9 -12 8 -2 -11z"/>
<path d="M1910 3200 c0 -5 4 -10 9 -10 6 0 13 5 16 10 3 6 -1 10 -9 10 -9 0
-16 -4 -16 -10z"/>
<path d="M824 3178 l-19 -23 23 19 c12 11 22 21 22 23 0 8 -8 2 -26 -19z"/>
<path d="M2243 3184 c-3 -8 0 -21 7 -27 10 -10 12 -8 6 7 -5 14 -3 17 10 12
14 -5 15 -4 4 9 -16 19 -19 19 -27 -1z"/>
<path d="M1015 3180 c-6 -9 49 -90 61 -90 9 0 3 11 -27 44 -17 20 -28 40 -24
46 3 5 4 10 1 10 -3 0 -8 -5 -11 -10z"/>
<path d="M1406 3165 c-9 -26 -7 -32 5 -12 6 10 9 21 6 23 -2 3 -7 -2 -11 -11z"/>
<path d="M1916 3167 c3 -10 9 -15 12 -12 3 3 0 11 -7 18 -10 9 -11 8 -5 -6z"/>
<path d="M767 3163 c-4 -3 -7 -11 -7 -17 0 -6 5 -5 12 2 6 6 9 14 7 17 -3 3
-9 2 -12 -2z"/>
<path d="M1361 3146 c-7 -8 -10 -20 -6 -26 3 -5 1 -10 -5 -10 -6 0 -8 -5 -4
-11 4 -8 9 -7 15 2 8 11 12 10 24 -5 12 -16 17 -17 28 -7 10 10 9 12 -3 9 -8
-2 -14 3 -12 10 1 6 -1 11 -5 11 -19 -3 -27 2 -16 9 7 4 9 13 4 20 -6 10 -10
10 -20 -2z"/>
<path d="M1426 3142 c-10 -29 2 -85 21 -99 9 -7 18 -12 19 -10 1 1 -1 29 -4
61 -7 60 -25 84 -36 48z"/>
<path d="M816 3133 c-6 -14 -5 -15 5 -6 7 7 10 15 7 18 -3 3 -9 -2 -12 -12z"/>
<path d="M648 3122 c-7 -10 -26 -27 -42 -37 -16 -11 -23 -21 -17 -23 7 -2 21
4 31 13 18 16 18 16 13 -4 -3 -12 -13 -21 -23 -21 -10 0 -21 -7 -24 -16 -5
-12 -1 -14 17 -8 26 8 36 20 44 57 3 15 9 30 14 33 5 3 6 -3 2 -12 -4 -11 -3
-15 5 -10 12 7 12 46 0 46 -4 0 -13 -8 -20 -18z"/>
<path d="M1481 3060 c0 -19 4 -42 9 -50 7 -11 10 -8 9 15 0 17 -4 39 -9 50 -7
16 -9 14 -9 -15z"/>
<path d="M1381 3063 c7 -12 15 -20 18 -17 3 2 -3 12 -13 22 -17 16 -18 16 -5
-5z"/>
<path d="M420 3049 c0 -5 5 -7 10 -4 6 3 10 8 10 11 0 2 -4 4 -10 4 -5 0 -10
-5 -10 -11z"/>
<path d="M638 3024 c-7 -16 -17 -32 -23 -36 -6 -5 -6 -8 2 -8 12 0 46 60 38
68 -2 2 -10 -8 -17 -24z"/>
<path d="M1341 3034 c0 -11 3 -14 6 -6 3 7 2 16 -1 19 -3 4 -6 -2 -5 -13z"/>
<path d="M1546 3023 c-6 -14 -5 -15 5 -6 7 7 10 15 7 18 -3 3 -9 -2 -12 -12z"/>
<path d="M1377 3010 c-3 -11 -1 -20 4 -20 5 0 9 9 9 20 0 11 -2 20 -4 20 -2 0
-6 -9 -9 -20z"/>
<path d="M605 3010 c-3 -5 -1 -10 4 -10 6 0 11 5 11 10 0 6 -2 10 -4 10 -3 0
-8 -4 -11 -10z"/>
<path d="M1393 2991 c-11 -31 -6 -46 13 -33 5 4 7 20 4 36 l-5 28 -12 -31z"/>
<path d="M1444 3004 c-10 -9 -13 -13 -6 -9 7 4 12 -1 13 -12 0 -16 1 -16 8 2
8 19 9 18 13 -5 l5 -25 2 27 c1 34 -11 42 -35 22z"/>
<path d="M1640 2979 c0 -5 5 -7 10 -4 6 3 10 8 10 11 0 2 -4 4 -10 4 -5 0 -10
-5 -10 -11z"/>
<path d="M457 2951 c-14 -17 -28 -27 -31 -23 -4 3 -4 -1 0 -11 4 -10 1 -17 -6
-17 -7 0 -10 -7 -6 -15 3 -8 1 -15 -4 -15 -6 0 -10 -4 -10 -9 0 -5 9 -7 20 -4
11 3 18 9 15 13 -8 12 14 62 37 88 12 12 19 22 16 22 -4 0 -17 -13 -31 -29z"/>
<path d="M2484 2950 c-6 -28 -55 -69 -132 -109 -13 -7 -22 -15 -19 -17 6 -6
173 94 188 112 14 17 5 44 -16 44 -9 0 -18 -12 -21 -30z"/>
<path d="M601 2958 c1 -27 15 -52 23 -40 4 6 2 21 -4 32 -12 23 -20 26 -19 8z"/>
<path d="M1360 2970 c-1 -3 -4 -16 -6 -30 -3 -18 -2 -22 7 -13 6 6 9 19 6 29
-3 11 -6 17 -7 14z"/>
<path d="M1490 2955 c-1 -11 -2 -29 -1 -40 1 -18 1 -19 -9 -2 -6 9 -16 17 -22
17 -9 0 -9 -3 0 -12 7 -7 12 -27 12 -44 0 -41 18 -54 25 -19 11 56 12 71 5 95
-7 21 -8 22 -10 5z"/>
<path d="M479 2943 c-13 -16 -12 -17 4 -4 9 7 17 15 17 17 0 8 -8 3 -21 -13z"/>
<path d="M1412 2910 c0 -19 2 -27 5 -17 2 9 2 25 0 35 -3 9 -5 1 -5 -18z"/>
<path d="M640 2921 c0 -6 4 -13 10 -16 6 -3 7 1 4 9 -7 18 -14 21 -14 7z"/>
<path d="M590 2900 c0 -5 5 -10 11 -10 5 0 7 5 4 10 -3 6 -8 10 -11 10 -2 0
-4 -4 -4 -10z"/>
<path d="M1214 2875 c-4 -9 -4 -19 0 -22 3 -4 6 2 7 13 1 15 3 13 9 -6 7 -23
8 -23 9 -3 1 27 -17 40 -25 18z"/>
<path d="M1405 2860 c3 -5 8 -10 11 -10 2 0 4 5 4 10 0 6 -5 10 -11 10 -5 0
-7 -4 -4 -10z"/>
<path d="M1327 2853 c-4 -3 -7 -11 -7 -17 0 -6 5 -5 12 2 6 6 9 14 7 17 -3 3
-9 2 -12 -2z"/>
<path d="M1230 2810 c6 -12 7 -20 1 -20 -5 0 -11 5 -13 12 -3 7 -7 5 -11 -6
-5 -11 -3 -15 5 -10 7 5 9 0 6 -13 -4 -16 -2 -19 13 -16 11 3 22 10 26 16 4 6
1 7 -7 2 -10 -6 -12 -4 -7 8 7 20 -1 47 -14 47 -6 0 -5 -9 1 -20z"/>
<path d="M1250 2820 c0 -5 5 -10 10 -10 6 0 10 5 10 10 0 6 -4 10 -10 10 -5 0
-10 -4 -10 -10z"/>
<path d="M1020 2801 c0 -25 6 -27 13 -6 4 8 2 17 -3 20 -6 4 -10 -3 -10 -14z"/>
<path d="M987 2771 c-4 -17 -3 -21 5 -13 5 5 8 16 6 23 -3 8 -7 3 -11 -10z"/>
<path d="M2343 2702 c-33 -21 -41 -31 -37 -47 11 -36 27 -43 21 -9 -5 28 -2
33 36 54 26 15 37 18 30 8 -7 -8 -9 -19 -5 -23 4 -5 1 -5 -5 -1 -7 4 -13 2
-13 -3 0 -6 -5 -10 -11 -8 -6 1 -13 -4 -14 -11 -2 -7 -1 -8 1 -3 4 6 14 7 30
0 47 -17 57 -12 50 23 -6 28 -20 48 -36 48 -3 0 -24 -13 -47 -28z m77 -32 c0
-5 -2 -10 -4 -10 -3 0 -8 5 -11 10 -3 6 -1 10 4 10 6 0 11 -4 11 -10z"/>
<path d="M949 2703 c-13 -17 -13 -17 6 -3 11 8 22 16 24 17 2 2 0 3 -6 3 -6 0
-17 -8 -24 -17z"/>
<path d="M2620 2715 c0 -5 5 -17 10 -25 5 -8 10 -10 10 -5 0 6 -5 17 -10 25
-5 8 -10 11 -10 5z"/>
<path d="M1062 2679 c-18 -12 -31 -24 -28 -26 5 -5 66 35 66 43 0 6 -3 5 -38
-17z"/>
<path d="M2240 2690 c-8 -5 -12 -11 -10 -14 3 -2 14 2 24 10 22 15 10 19 -14
4z"/>
<path d="M1177 2675 c-4 -8 -3 -16 1 -19 4 -3 9 4 9 15 2 23 -3 25 -10 4z"/>
<path d="M2584 2675 c-12 -9 -14 -14 -6 -15 7 0 11 -4 7 -9 -10 -17 12 -21 25
-6 10 12 10 15 0 15 -7 0 -10 7 -6 15 7 19 5 19 -20 0z"/>
<path d="M986 2654 c-5 -14 -4 -15 9 -4 17 14 19 20 6 20 -5 0 -12 -7 -15 -16z"/>
<path d="M2644 2656 c-8 -8 -8 -18 -1 -33 15 -34 27 -28 20 10 -7 39 -6 37
-19 23z"/>
<path d="M850 2624 c0 -8 5 -12 10 -9 6 3 10 10 10 16 0 5 -4 9 -10 9 -5 0
-10 -7 -10 -16z"/>
<path d="M2450 2515 c7 -9 15 -13 17 -11 7 7 -7 26 -19 26 -6 0 -6 -6 2 -15z"/>
<path d="M1989 2473 c-13 -16 -12 -17 4 -4 9 7 17 15 17 17 0 8 -8 3 -21 -13z"/>
</g>
</svg>
